<?xml version="1.0" encoding="UTF-8"?>
<svg id="white" xmlns="http://www.w3.org/2000/svg" viewBox="0 0 1062.29 217.09">
  <defs>
    <style>
      .cls-1 {
        fill: #fff;
        stroke-width: 0px;
      }
    </style>
  </defs>
  <g>
    <g>
      <path class="cls-1" d="M412.53,68.3c0,5.49-.95,10.59-2.84,15.31-1.89,4.72-4.56,8.83-7.99,12.32-3.44,3.49-7.58,6.22-12.42,8.2s-10.22,2.97-16.12,2.97-11.28-.99-16.14-2.97c-4.86-1.98-9.02-4.71-12.47-8.2-3.46-3.49-6.13-7.59-8.02-12.32-1.89-4.72-2.84-9.82-2.84-15.31s.95-10.59,2.84-15.31c1.89-4.72,4.56-8.82,8.02-12.29,3.45-3.47,7.61-6.2,12.47-8.18,4.86-1.98,10.24-2.97,16.14-2.97s11.28,1,16.12,2.99c4.84,2,8.98,4.73,12.42,8.2,3.44,3.47,6.1,7.57,7.99,12.29,1.89,4.72,2.84,9.81,2.84,15.26ZM394.51,68.3c0-3.75-.49-7.13-1.46-10.13-.97-3-2.37-5.55-4.19-7.63-1.82-2.08-4.05-3.68-6.69-4.79-2.64-1.11-5.64-1.67-9.01-1.67s-6.43.56-9.09,1.67c-2.66,1.11-4.9,2.71-6.72,4.79-1.82,2.08-3.22,4.63-4.19,7.63-.97,3-1.46,6.38-1.46,10.13s.49,7.18,1.46,10.18c.97,3,2.37,5.55,4.19,7.63s4.06,3.67,6.72,4.77c2.66,1.09,5.69,1.64,9.09,1.64s6.37-.55,9.01-1.64c2.64-1.09,4.87-2.68,6.69-4.77s3.22-4.63,4.19-7.63c.97-3,1.46-6.4,1.46-10.18Z"/>
      <path class="cls-1" d="M420.96,106.27v-54.01h9.58c.8,0,1.47.07,2.01.21.54.14.99.36,1.35.65.36.3.64.69.83,1.17.19.49.36,1.08.5,1.77l.89,5.05c1.98-3.05,4.2-5.47,6.67-7.24,2.46-1.77,5.16-2.66,8.07-2.66,2.46,0,4.44.59,5.94,1.77l-2.08,11.87c-.14.73-.42,1.24-.83,1.54-.42.3-.97.44-1.67.44-.59,0-1.28-.08-2.08-.23-.8-.16-1.81-.23-3.02-.23-4.24,0-7.57,2.26-10,6.77v33.12h-16.14Z"/>
      <path class="cls-1" d="M463.98,106.27V28.3h16.14v29.69c2.01-1.98,4.3-3.57,6.85-4.77s5.55-1.8,8.98-1.8c2.81,0,5.42.61,7.81,1.82,2.4,1.22,4.46,2.99,6.2,5.34,1.74,2.34,3.1,5.22,4.09,8.62.99,3.4,1.48,7.27,1.48,11.61,0,4.06-.56,7.81-1.69,11.25-1.13,3.44-2.71,6.42-4.74,8.96-2.03,2.54-4.46,4.51-7.29,5.94-2.83,1.42-5.96,2.14-9.4,2.14-1.6,0-3.03-.16-4.3-.47-1.27-.31-2.43-.76-3.49-1.33-1.06-.57-2.03-1.26-2.92-2.06-.89-.8-1.74-1.67-2.58-2.6l-.57,2.71c-.24,1.11-.69,1.88-1.33,2.29-.64.42-1.48.62-2.53.62h-10.73ZM490.33,63.56c-1.18,0-2.25.11-3.2.34-.96.23-1.84.55-2.66.96-.82.42-1.57.95-2.27,1.59-.7.64-1.39,1.38-2.08,2.21v22.92c1.21,1.35,2.53,2.3,3.96,2.84,1.42.54,2.92.81,4.48.81s2.86-.29,4.11-.89c1.25-.59,2.33-1.54,3.25-2.84.92-1.3,1.64-2.99,2.16-5.08.52-2.08.78-4.62.78-7.6s-.21-5.24-.62-7.19c-.42-1.94-1-3.52-1.74-4.71s-1.64-2.06-2.68-2.58c-1.04-.52-2.21-.78-3.49-.78Z"/>
      <path class="cls-1" d="M542.93,37.47c0,1.28-.26,2.49-.78,3.62-.52,1.13-1.23,2.12-2.14,2.97-.9.85-1.95,1.53-3.15,2.03-1.2.5-2.47.75-3.83.75s-2.55-.25-3.7-.75c-1.15-.5-2.16-1.18-3.05-2.03-.89-.85-1.58-1.84-2.08-2.97-.5-1.13-.76-2.33-.76-3.62s.25-2.55.76-3.7c.5-1.15,1.2-2.15,2.08-3.02.89-.87,1.9-1.54,3.05-2.03,1.15-.49,2.38-.73,3.7-.73s2.63.24,3.83.73c1.2.49,2.25,1.16,3.15,2.03.9.87,1.61,1.88,2.14,3.02.52,1.15.78,2.38.78,3.7ZM541.06,52.26v54.01h-16.14v-54.01h16.14Z"/>
      <path class="cls-1" d="M573.03,107.1c-2.57,0-4.84-.37-6.8-1.12-1.96-.75-3.61-1.8-4.95-3.18-1.34-1.37-2.35-3.03-3.05-4.97-.69-1.94-1.04-4.11-1.04-6.51v-27.91h-4.58c-.83,0-1.55-.27-2.14-.81-.59-.54-.89-1.33-.89-2.37v-6.3l8.59-1.67,3.18-13.18c.42-1.67,1.6-2.5,3.54-2.5h8.44v15.78h13.12v11.04h-13.12v26.82c0,1.25.3,2.28.91,3.1.61.82,1.48,1.22,2.63,1.22.59,0,1.08-.06,1.48-.18.4-.12.75-.26,1.04-.42.29-.16.57-.29.83-.42.26-.12.56-.18.91-.18.49,0,.88.11,1.17.34.29.23.6.58.91,1.07l4.9,7.66c-2.08,1.56-4.43,2.73-7.03,3.52s-5.29,1.17-8.07,1.17Z"/>
      <path class="cls-1" d="M666.83,86.63c.42,0,.83.08,1.25.23.42.16.82.43,1.2.81l6.98,7.34c-3.06,3.99-6.88,7-11.48,9.04s-10.04,3.05-16.33,3.05c-5.76,0-10.93-.98-15.49-2.94-4.57-1.96-8.44-4.67-11.61-8.12-3.18-3.45-5.62-7.55-7.32-12.29-1.7-4.74-2.55-9.89-2.55-15.44s.97-10.86,2.92-15.6c1.94-4.74,4.66-8.83,8.15-12.26,3.49-3.44,7.66-6.11,12.53-8.02,4.86-1.91,10.22-2.86,16.09-2.86,2.85,0,5.53.25,8.05.75,2.52.5,4.87,1.2,7.06,2.08,2.19.89,4.2,1.94,6.04,3.18,1.84,1.23,3.47,2.6,4.9,4.09l-5.94,7.97c-.38.49-.83.93-1.35,1.33-.52.4-1.25.6-2.19.6-.62,0-1.22-.14-1.77-.42-.56-.28-1.15-.62-1.77-1.02-.62-.4-1.31-.83-2.06-1.3s-1.63-.9-2.66-1.3c-1.02-.4-2.22-.74-3.59-1.02-1.37-.28-2.98-.42-4.82-.42-3.19,0-6.11.56-8.75,1.69-2.64,1.13-4.91,2.74-6.8,4.84-1.89,2.1-3.37,4.64-4.43,7.63-1.06,2.99-1.59,6.34-1.59,10.05s.53,7.34,1.59,10.36c1.06,3.02,2.5,5.56,4.32,7.63,1.82,2.07,3.95,3.64,6.38,4.71,2.43,1.08,5.03,1.61,7.81,1.61,1.6,0,3.05-.08,4.37-.23s2.54-.42,3.67-.81c1.13-.38,2.2-.88,3.23-1.48,1.02-.61,2.06-1.36,3.1-2.27.42-.35.87-.63,1.35-.86.49-.23.99-.34,1.51-.34Z"/>
      <path class="cls-1" d="M708.34,51.43c4.1,0,7.83.64,11.2,1.93,3.37,1.28,6.26,3.12,8.67,5.52,2.41,2.4,4.29,5.3,5.62,8.72,1.34,3.42,2,7.27,2,11.54s-.67,8.19-2,11.64c-1.34,3.46-3.21,6.39-5.62,8.8-2.41,2.41-5.3,4.27-8.67,5.57-3.37,1.3-7.1,1.95-11.2,1.95s-7.89-.65-11.27-1.95c-3.39-1.3-6.3-3.16-8.75-5.57-2.45-2.41-4.34-5.35-5.68-8.8-1.34-3.45-2-7.33-2-11.64s.67-8.12,2-11.54c1.34-3.42,3.23-6.33,5.68-8.72,2.45-2.4,5.36-4.24,8.75-5.52,3.38-1.28,7.14-1.93,11.27-1.93ZM708.34,95.12c3.71,0,6.45-1.31,8.2-3.93,1.75-2.62,2.63-6.6,2.63-11.95s-.88-9.32-2.63-11.93c-1.75-2.6-4.49-3.91-8.2-3.91s-6.61,1.3-8.38,3.91c-1.77,2.6-2.66,6.58-2.66,11.93s.88,9.33,2.66,11.95c1.77,2.62,4.57,3.93,8.38,3.93Z"/>
      <path class="cls-1" d="M744.69,106.27v-54.01h10c1.01,0,1.85.23,2.53.68.68.45,1.15,1.13,1.43,2.03l.88,2.92c.9-.94,1.84-1.8,2.81-2.58.97-.78,2.02-1.46,3.15-2.03,1.13-.57,2.34-1.02,3.65-1.35,1.3-.33,2.73-.5,4.3-.5,3.26,0,5.96.84,8.1,2.53,2.13,1.68,3.76,3.93,4.87,6.74.9-1.67,2-3.09,3.31-4.27,1.3-1.18,2.71-2.14,4.22-2.86,1.51-.73,3.11-1.27,4.79-1.61,1.68-.35,3.36-.52,5.03-.52,3.09,0,5.83.46,8.23,1.38,2.4.92,4.4,2.26,6.01,4.01,1.62,1.75,2.84,3.91,3.67,6.46s1.25,5.44,1.25,8.67v34.32h-16.14v-34.32c0-5.59-2.4-8.38-7.19-8.38-2.19,0-4,.72-5.44,2.16-1.44,1.44-2.16,3.52-2.16,6.22v34.32h-16.14v-34.32c0-3.09-.61-5.26-1.82-6.51-1.22-1.25-3-1.88-5.36-1.88-1.46,0-2.84.33-4.14.99-1.3.66-2.53,1.55-3.67,2.66v39.06h-16.14Z"/>
      <path class="cls-1" d="M834.37,123.4V52.26h10c1.01,0,1.85.23,2.53.68.68.45,1.15,1.13,1.43,2.03l1.2,3.96c1.04-1.15,2.16-2.19,3.36-3.12,1.2-.94,2.48-1.74,3.85-2.42,1.37-.68,2.85-1.21,4.43-1.59,1.58-.38,3.31-.57,5.18-.57,2.81,0,5.42.62,7.81,1.87,2.4,1.25,4.46,3.06,6.2,5.42,1.74,2.36,3.1,5.25,4.09,8.67.99,3.42,1.48,7.3,1.48,11.64,0,4.06-.56,7.81-1.69,11.25-1.13,3.44-2.71,6.42-4.74,8.96-2.03,2.54-4.46,4.51-7.29,5.94-2.83,1.42-5.96,2.14-9.4,2.14-2.81,0-5.17-.4-7.08-1.2-1.91-.8-3.65-1.87-5.21-3.23v20.73h-16.14ZM860.72,63.56c-1.18,0-2.25.11-3.2.34-.96.23-1.84.55-2.66.96-.82.42-1.57.95-2.26,1.59-.7.64-1.39,1.38-2.08,2.21v22.92c1.21,1.35,2.53,2.3,3.96,2.84,1.42.54,2.92.81,4.48.81s2.86-.29,4.11-.89c1.25-.59,2.33-1.54,3.25-2.84.92-1.3,1.64-2.99,2.16-5.08s.78-4.62.78-7.6-.21-5.24-.62-7.19c-.42-1.94-1-3.52-1.75-4.71-.75-1.2-1.64-2.06-2.68-2.58-1.04-.52-2.21-.78-3.49-.78Z"/>
      <path class="cls-1" d="M931.86,106.27c-1.53,0-2.68-.21-3.46-.62s-1.43-1.28-1.95-2.6l-1.15-2.97c-1.35,1.15-2.66,2.15-3.91,3.02-1.25.87-2.54,1.61-3.88,2.21-1.34.61-2.76,1.06-4.27,1.35-1.51.29-3.19.44-5.03.44-2.47,0-4.71-.32-6.72-.97-2.01-.64-3.72-1.59-5.13-2.85-1.41-1.25-2.49-2.81-3.25-4.68-.76-1.86-1.15-4.01-1.15-6.45,0-1.92.49-3.88,1.46-5.9.97-2.02,2.66-3.86,5.05-5.51,2.4-1.65,5.62-3.04,9.69-4.15,4.06-1.11,9.18-1.67,15.36-1.67v-2.31c0-3.19-.65-5.49-1.95-6.91-1.3-1.42-3.15-2.13-5.55-2.13-1.91,0-3.47.21-4.69.62-1.22.42-2.3.89-3.25,1.41-.96.52-1.88.99-2.79,1.41-.9.42-1.98.62-3.23.62-1.11,0-2.06-.27-2.84-.81-.78-.54-1.4-1.21-1.85-2l-2.92-5.05c3.26-2.88,6.88-5.03,10.86-6.43,3.98-1.41,8.24-2.11,12.79-2.11,3.26,0,6.21.53,8.83,1.59,2.62,1.06,4.84,2.53,6.67,4.43,1.82,1.89,3.22,4.14,4.19,6.74.97,2.6,1.46,5.45,1.46,8.54v33.75h-7.39ZM913.32,96.42c2.08,0,3.91-.36,5.47-1.09,1.56-.73,3.14-1.91,4.74-3.54v-7.4c-3.23,0-5.88.21-7.97.63-2.08.42-3.73.95-4.95,1.58-1.22.63-2.06,1.35-2.53,2.15s-.7,1.68-.7,2.63c0,1.86.5,3.16,1.51,3.91,1.01.75,2.48,1.13,4.43,1.13Z"/>
      <path class="cls-1" d="M950.71,106.27v-54.01h10c1.01,0,1.85.23,2.53.68.68.45,1.15,1.13,1.43,2.03l.94,3.12c1.04-.97,2.12-1.88,3.23-2.71,1.11-.83,2.3-1.54,3.57-2.11,1.27-.57,2.64-1.02,4.11-1.35,1.48-.33,3.08-.5,4.82-.5,2.95,0,5.56.51,7.84,1.54,2.27,1.02,4.19,2.45,5.75,4.27s2.74,3.99,3.54,6.51c.8,2.52,1.2,5.25,1.2,8.2v34.32h-16.14v-34.32c0-2.64-.61-4.7-1.82-6.17-1.22-1.48-3-2.21-5.36-2.21-1.77,0-3.44.38-5,1.15-1.56.76-3.06,1.79-4.48,3.07v38.49h-16.14Z"/>
      <path class="cls-1" d="M1031.12,120.28c-.49,1.08-1.08,1.87-1.77,2.37-.69.5-1.81.76-3.33.76h-12.08l10.42-21.87-21.56-49.27h14.27c1.25,0,2.22.28,2.92.83.69.56,1.18,1.22,1.46,1.98l8.85,23.28c.83,2.15,1.51,4.31,2.03,6.46.35-1.11.73-2.2,1.15-3.28.42-1.08.82-2.17,1.2-3.28l8.02-23.18c.28-.8.82-1.47,1.64-2,.82-.54,1.69-.81,2.63-.81h13.02l-28.85,68.02Z"/>
      <path class="cls-1" d="M370.24,167.83v3.68h-16.03v11.67h13.7v3.68h-13.7v14.35h-4.54v-33.38h20.57Z"/>
      <path class="cls-1" d="M422.99,184.53c0,2.5-.4,4.8-1.19,6.88-.79,2.09-1.91,3.89-3.35,5.39-1.44,1.51-3.18,2.68-5.21,3.51-2.03.83-4.27,1.25-6.72,1.25s-4.69-.42-6.71-1.25c-2.02-.83-3.75-2-5.2-3.51-1.44-1.51-2.56-3.3-3.35-5.39s-1.19-4.38-1.19-6.88.4-4.8,1.19-6.88,1.91-3.89,3.35-5.41c1.44-1.51,3.18-2.69,5.2-3.53,2.02-.84,4.26-1.26,6.71-1.26s4.69.42,6.72,1.26c2.03.84,3.76,2.02,5.21,3.53,1.44,1.51,2.56,3.32,3.35,5.41.79,2.09,1.19,4.38,1.19,6.88ZM418.35,184.53c0-2.05-.28-3.89-.84-5.52s-1.35-3.01-2.38-4.14c-1.03-1.13-2.27-1.99-3.73-2.6-1.46-.61-3.09-.91-4.89-.91s-3.41.3-4.87.91c-1.46.61-2.71,1.47-3.74,2.6-1.03,1.13-1.83,2.5-2.39,4.14s-.84,3.47-.84,5.52.28,3.89.84,5.51,1.35,3,2.39,4.12c1.03,1.13,2.28,1.99,3.74,2.59,1.46.6,3.08.9,4.87.9s3.43-.3,4.89-.9c1.46-.6,2.7-1.46,3.73-2.59,1.02-1.13,1.82-2.5,2.38-4.12s.84-3.46.84-5.51Z"/>
      <path class="cls-1" d="M450.06,187.28v13.93h-4.5v-33.38h9.44c2.11,0,3.94.21,5.47.64s2.81,1.04,3.81,1.85c1,.81,1.74,1.78,2.23,2.92s.72,2.42.72,3.83c0,1.18-.19,2.28-.56,3.31-.37,1.02-.91,1.95-1.62,2.76-.71.82-1.57,1.51-2.59,2.08-1.02.57-2.17,1.01-3.46,1.3.56.33,1.06.8,1.49,1.42l9.74,13.26h-4.01c-.82,0-1.43-.32-1.82-.96l-8.67-11.93c-.26-.37-.55-.64-.86-.8s-.78-.24-1.4-.24h-3.42ZM450.06,184h4.73c1.32,0,2.48-.16,3.48-.48,1-.32,1.84-.77,2.52-1.35.68-.58,1.18-1.28,1.53-2.08.34-.81.51-1.7.51-2.68,0-1.99-.66-3.49-1.97-4.5-1.31-1.01-3.27-1.51-5.86-1.51h-4.94v12.6Z"/>
      <path class="cls-1" d="M538.7,167.83v3.8h-10.79v29.59h-4.52v-29.59h-10.83v-3.8h26.14Z"/>
      <path class="cls-1" d="M579.96,167.83v3.68h-16.03v11.09h12.98v3.54h-12.98v11.39h16.03v3.68h-20.57v-33.38h20.57Z"/>
      <path class="cls-1" d="M625.93,194.32c.25,0,.47.1.68.3l1.77,1.93c-1.37,1.58-3.03,2.82-4.97,3.7s-4.3,1.33-7.05,1.33c-2.41,0-4.59-.42-6.55-1.25-1.96-.83-3.63-2-5.01-3.49-1.38-1.5-2.45-3.3-3.21-5.39-.76-2.1-1.14-4.4-1.14-6.92s.41-4.82,1.22-6.92,1.96-3.9,3.44-5.4,3.24-2.68,5.3-3.51c2.06-.83,4.33-1.25,6.81-1.25s4.57.38,6.35,1.14c1.78.76,3.36,1.79,4.74,3.1l-1.47,2.07c-.11.16-.23.28-.37.38-.14.1-.34.15-.61.15-.2,0-.42-.07-.64-.22-.23-.15-.49-.33-.8-.55-.31-.22-.68-.45-1.09-.7-.42-.25-.92-.48-1.49-.7-.58-.22-1.24-.4-2-.55-.76-.15-1.64-.22-2.63-.22-1.79,0-3.42.31-4.9.92-1.48.61-2.76,1.49-3.83,2.62-1.07,1.13-1.91,2.52-2.5,4.15-.6,1.63-.9,3.46-.9,5.48s.3,3.94.9,5.57c.6,1.63,1.41,3.01,2.45,4.14,1.03,1.13,2.26,1.98,3.67,2.57,1.41.59,2.94.89,4.57.89.99,0,1.89-.06,2.68-.17.79-.12,1.53-.3,2.2-.55.68-.25,1.3-.56,1.89-.94.58-.38,1.17-.83,1.76-1.36.26-.23.52-.35.77-.35Z"/>
      <path class="cls-1" d="M677.32,201.21h-4.54v-15.19h-17.99v15.19h-4.54v-33.38h4.54v14.89h17.99v-14.89h4.54v33.38Z"/>
      <path class="cls-1" d="M737.66,167.46c1.23,0,2.34.2,3.35.59s1.88.92,2.62,1.57c.74.65,1.32,1.41,1.75,2.27.43.86.67,1.76.73,2.69l-2.59.51c-.08.02-.15.02-.21.02-.2,0-.39-.05-.57-.16-.18-.11-.31-.3-.38-.58-.11-.4-.28-.82-.52-1.26-.24-.43-.55-.83-.93-1.19-.38-.36-.84-.65-1.38-.89-.54-.23-1.16-.35-1.88-.35-.78,0-1.48.12-2.1.37s-1.15.59-1.6,1.04c-.44.44-.79.96-1.03,1.56-.24.6-.36,1.25-.36,1.95,0,.54.07,1.06.2,1.56.13.5.33,1,.59,1.5.26.5.61,1.02,1.03,1.56.42.54.92,1.1,1.51,1.69l9.6,9.76c.59-1.04,1.06-2.13,1.41-3.27s.59-2.29.71-3.44c.03-.29.12-.53.28-.7s.37-.26.65-.26h2.56c-.03,1.79-.32,3.54-.86,5.27s-1.33,3.34-2.35,4.85l6.99,7.08h-4.01c-.45,0-.82-.05-1.09-.16-.28-.11-.59-.33-.93-.68l-3.35-3.38c-1.46,1.41-3.14,2.53-5.04,3.35-1.9.82-4,1.23-6.28,1.23-1.24,0-2.46-.21-3.66-.63-1.2-.42-2.26-1.03-3.2-1.83-.94-.8-1.7-1.77-2.27-2.92-.58-1.15-.86-2.45-.86-3.89,0-1.09.18-2.12.55-3.09.36-.97.87-1.87,1.51-2.69s1.41-1.56,2.29-2.21c.89-.65,1.86-1.21,2.91-1.68-.95-1.2-1.65-2.36-2.1-3.49s-.68-2.31-.68-3.52c0-1.13.21-2.2.62-3.19.41-.99,1.01-1.86,1.78-2.6.78-.74,1.72-1.32,2.83-1.75,1.11-.43,2.36-.64,3.74-.64ZM728.41,191.99c0,1.01.19,1.9.56,2.67.37.77.86,1.42,1.47,1.95.61.53,1.3.93,2.07,1.2.78.27,1.57.41,2.38.41,1.74,0,3.3-.32,4.68-.96s2.6-1.48,3.66-2.54l-9.86-9.95c-1.65.89-2.88,1.95-3.72,3.18-.83,1.23-1.25,2.58-1.25,4.04Z"/>
      <path class="cls-1" d="M828.89,184.53c0,2.5-.4,4.78-1.19,6.83-.79,2.05-1.91,3.81-3.36,5.27s-3.18,2.59-5.2,3.39c-2.02.8-4.25,1.2-6.71,1.2h-12.49v-33.38h12.49c2.45,0,4.69.4,6.71,1.2,2.02.8,3.75,1.93,5.2,3.4s2.56,3.23,3.36,5.28,1.19,4.33,1.19,6.83ZM824.26,184.53c0-2.05-.28-3.88-.84-5.5-.56-1.61-1.35-2.98-2.38-4.1-1.03-1.12-2.27-1.97-3.73-2.56s-3.08-.89-4.87-.89h-7.94v26.07h7.94c1.79,0,3.41-.29,4.87-.89,1.46-.59,2.7-1.44,3.73-2.55,1.02-1.11,1.82-2.47,2.38-4.09.56-1.62.84-3.45.84-5.5Z"/>
      <path class="cls-1" d="M871.55,167.83v3.68h-16.03v11.09h12.98v3.54h-12.98v11.39h16.03v3.68h-20.57v-33.38h20.57Z"/>
      <path class="cls-1" d="M911.09,173.05c-.14.23-.29.41-.44.52-.16.12-.36.17-.61.17-.26,0-.57-.13-.92-.4s-.79-.56-1.33-.87c-.54-.32-1.18-.61-1.93-.87-.75-.26-1.67-.4-2.74-.4-1.01,0-1.9.14-2.68.41-.78.27-1.42.64-1.95,1.11-.52.47-.91,1.01-1.18,1.64-.26.63-.4,1.31-.4,2.04,0,.93.23,1.7.69,2.32.46.61,1.06,1.14,1.82,1.57.75.44,1.61.81,2.56,1.13s1.93.65,2.94.99c1,.34,1.98.73,2.94,1.15s1.81.97,2.56,1.62c.75.65,1.36,1.45,1.82,2.4.46.95.69,2.11.69,3.49,0,1.46-.25,2.83-.75,4.11s-1.22,2.4-2.18,3.34c-.96.95-2.13,1.69-3.52,2.24-1.39.54-2.97.82-4.74.82-2.16,0-4.13-.39-5.91-1.18s-3.3-1.84-4.55-3.18l1.3-2.14c.12-.17.28-.31.45-.43.18-.12.38-.17.59-.17.33,0,.7.17,1.12.52.42.35.94.73,1.57,1.15s1.39.8,2.28,1.15c.89.35,1.98.52,3.27.52,1.07,0,2.03-.15,2.87-.44.84-.29,1.55-.71,2.13-1.25.58-.54,1.03-1.18,1.34-1.92.31-.75.47-1.58.47-2.49,0-1.01-.23-1.84-.69-2.48-.46-.64-1.06-1.18-1.81-1.62-.75-.43-1.6-.8-2.55-1.11s-1.93-.61-2.94-.93-1.98-.69-2.94-1.11-1.81-.96-2.55-1.63c-.75-.67-1.35-1.5-1.81-2.5-.46-1-.69-2.24-.69-3.72,0-1.18.23-2.32.69-3.42.46-1.1,1.12-2.08,1.99-2.94.87-.85,1.95-1.54,3.23-2.05,1.28-.51,2.75-.77,4.41-.77,1.86,0,3.56.3,5.1.89,1.54.59,2.88,1.44,4.03,2.56l-1.09,2.14Z"/>
      <path class="cls-1" d="M939.98,201.21h-4.52v-33.38h4.52v33.38Z"/>
      <path class="cls-1" d="M979.74,197.93c.9,0,1.73-.04,2.48-.13.75-.08,1.46-.21,2.13-.38s1.3-.38,1.89-.62c.59-.24,1.18-.52,1.77-.83v-7.36h-5.17c-.29,0-.53-.08-.71-.26-.18-.17-.27-.38-.27-.63v-2.56h10.25v12.81c-.84.61-1.71,1.13-2.62,1.58-.91.45-1.88.83-2.91,1.13-1.03.3-2.14.53-3.32.68-1.18.15-2.46.22-3.84.22-2.42,0-4.64-.42-6.66-1.25-2.02-.83-3.76-2-5.22-3.49-1.46-1.5-2.6-3.3-3.41-5.39s-1.22-4.4-1.22-6.92.4-4.87,1.2-6.97c.8-2.1,1.94-3.89,3.42-5.39,1.48-1.5,3.28-2.66,5.38-3.48,2.1-.82,4.46-1.23,7.07-1.23,1.32,0,2.55.1,3.68.29s2.19.47,3.16.84c.97.37,1.87.81,2.69,1.33.82.52,1.59,1.11,2.31,1.76l-1.28,2.05c-.26.42-.61.63-1.03.63-.25,0-.52-.08-.82-.26-.39-.22-.82-.48-1.3-.79-.48-.31-1.07-.61-1.76-.9-.69-.29-1.51-.53-2.45-.73-.94-.2-2.05-.3-3.34-.3-1.88,0-3.58.31-5.1.92-1.52.61-2.82,1.49-3.89,2.63-1.07,1.14-1.89,2.52-2.47,4.15-.58,1.62-.86,3.44-.86,5.46s.3,4,.9,5.65,1.44,3.06,2.53,4.21c1.09,1.15,2.38,2.03,3.87,2.63,1.49.61,3.14.91,4.94.91Z"/>
      <path class="cls-1" d="M1018.22,167.98c.19.1.42.31.66.62l19.34,25.16c-.05-.4-.08-.8-.09-1.18-.02-.38-.02-.75-.02-1.11v-23.65h3.96v33.38h-2.28c-.36,0-.66-.06-.9-.19-.24-.12-.48-.33-.71-.63l-19.31-25.14c.03.39.05.77.07,1.14.02.37.02.71.02,1.02v23.79h-3.96v-33.38h2.33c.4,0,.7.05.9.15Z"/>
    </g>
    <path class="cls-1" d="M332.62,146.56c235.94-2.01,487.8-1.98,723.94,0-236.2,1.98-487.94,2.01-723.94,0h0Z"/>
  </g>
  <g>
    <path class="cls-1" d="M188.4,197.68c-16.37,10.42-35.8,16.45-56.64,16.45-58.33,0-105.61-47.29-105.61-105.62,0-11.24,1.75-22.07,5.01-32.23,7.69,8.28,16.51,17.05,26.26,26.08-.17,2.03-.25,4.08-.25,6.15,0,41.2,33.4,74.6,74.59,74.6,8.68,0,17-1.48,24.74-4.2,11.24,7.17,21.96,13.47,31.9,18.77Z"/>
    <path class="cls-1" d="M228.52,150.92c5.7-12.98,8.85-27.32,8.85-42.4,0-58.33-47.29-105.61-105.61-105.61-24.57,0-47.19,8.39-65.13,22.47C35.2,8.81,11.94,2.5,5.59,10.69c-6.35,8.19,5.55,29.13,29.4,55.43,7.09,7.82,15.24,16.11,24.28,24.68,15.07,14.29,32.61,29.35,51.87,44.29,19.26,14.94,38.21,28.18,55.8,39.21,10.55,6.62,20.6,12.45,29.94,17.37,31.42,16.56,54.68,22.87,61.03,14.69,6.35-8.19-5.55-29.13-29.4-55.43ZM196.7,145.58c-1.75,3.29-3.81,6.43-6.35,8.78-1.74,1.61-3.46,1.67-5.8,1.46-4.76-.42-9.46-2.39-13.79-4.28-14.68-6.43-28.29-15.52-41.17-24.97-2.51-1.84-5-3.72-7.46-5.63-13.4-10.4-26.42-21.67-37.59-34.48-4.02-4.61-14.73-15.37-12.31-22.57.79-2.36,3.35-4.51,4.99-6.27,2.96-3.17,6.2-6.08,9.67-8.69,25.33-19.05,61.08-19.56,87.22-1.75,3.67,2.5,7.12,5.34,10.27,8.48,21.1,21.05,27.76,54.39,16.06,81.85-1.09,2.56-2.31,5.37-3.74,8.07Z"/>
  </g>
</svg>