<?xml version="1.0" encoding="UTF-8"?>
<svg id="white" xmlns="http://www.w3.org/2000/svg" viewBox="0 0 1055.1 220.56">
  <defs>
    <style>
      .cls-1 {
        fill: #fff;
        stroke-width: 0px;
      }
    </style>
  </defs>
  <g>
    <g>
      <path class="cls-1" d="M92.82,61.82l1.09,15.41c.17,2.5.83,4.27,1.98,5.31,1.15,1.04,3.09,1.56,5.83,1.56h1.2v16.14h-1.2c-3.99,0-7.32-.73-10-2.19-2.67-1.46-4.88-3.4-6.61-5.83-3.19,2.85-7.06,4.89-11.61,6.14-4.55,1.25-10.38,1.87-17.49,1.87h-8.69c-5.9,0-11.39-.36-16.48-1.09-5.08-.73-9.54-2.04-13.35-3.93-3.82-1.89-6.79-4.55-8.93-7.99-2.13-3.44-3.2-7.88-3.2-13.33,0-3.3.37-6.49,1.09-9.58.73-3.09,1.63-5.93,2.71-8.54l13.38,5.05c-.59,1.67-1.22,3.61-1.87,5.83-.66,2.22-.99,4.36-.99,6.4,0,2.5.76,4.5,2.29,5.99s3.59,2.59,6.2,3.31c2.6.71,5.55,1.18,8.85,1.41,3.3.23,6.73.34,10.31.34h8.69c4.93,0,9.14-.16,12.65-.47,3.5-.31,6.2-1.08,8.07-2.32,1.87-1.23,2.81-3.18,2.81-5.86,0-1.84-.06-3.87-.18-6.09-.12-2.22-.25-4.18-.39-5.88l13.85-1.67ZM51.22,51.2l-9.32,9.27-9.11-9.27,9.11-9.16,9.32,9.16ZM68.82,51.2l-9.21,9.27-9.21-9.27,9.21-9.16,9.21,9.16Z"/>
      <path class="cls-1" d="M132.33,84.1v16.14h-31.5v-16.14h31.5Z"/>
      <path class="cls-1" d="M161.75,84.1v16.14h-31.5v-16.14h31.5Z"/>
      <path class="cls-1" d="M191.16,84.1v16.14h-31.5v-16.14h31.5Z"/>
      <path class="cls-1" d="M220.57,84.1v16.14h-31.5v-16.14h31.5Z"/>
      <path class="cls-1" d="M229.01,115.75l-9.32,9.27-9.11-9.27,9.11-9.16,9.32,9.16ZM222.55,84.1v16.14h-4.17v-16.14h4.17ZM249.16,61.82l1.09,15.41c.1,1.63.43,2.96.99,3.98.55,1.02,1.4,1.76,2.52,2.21s2.59.68,4.4.68h1.09v16.14h-1.2c-2.26,0-4.32-.29-6.2-.86-1.87-.57-3.55-1.34-5.02-2.32-1.48-.97-2.77-2.08-3.88-3.33-2.12,1.98-4.62,3.56-7.5,4.74-2.88,1.18-5.95,1.77-9.21,1.77h-5v-16.14h5c3.71,0,6.25-.58,7.6-1.74,1.35-1.16,2.03-3.43,2.03-6.79,0-2.08-.05-4.14-.16-6.17-.1-2.03-.24-4-.42-5.91l13.85-1.67ZM246.6,115.75l-9.21,9.27-9.21-9.27,9.21-9.16,9.21,9.16Z"/>
      <path class="cls-1" d="M259.62,84.1v16.14h-2.5v-16.14h2.5ZM277.58,115.75l-9.74,9.68-9.68-9.68,9.68-9.74,9.74,9.74ZM258.22,100.24v-16.14h8.33c2.46,0,4.16-.78,5.1-2.34.94-1.56,1.41-3.56,1.41-5.99s-.29-4.96-.88-7.81c-.59-2.85-1.2-5.62-1.82-8.33l14.53-3.75c.69,3.37,1.24,6.7,1.64,10,.4,3.3.6,6.46.6,9.48,0,4.72-.62,8.95-1.87,12.7-1.25,3.75-3.38,6.72-6.38,8.9s-7.14,3.28-12.42,3.28h-8.23Z"/>
      <path class="cls-1" d="M285.39,113.72c4.89-1.08,9.19-2.43,12.88-4.06,3.7-1.63,6.57-3.9,8.62-6.79,2.05-2.9,3.07-6.76,3.07-11.58,0-3.19-.53-6.83-1.59-10.91-1.06-4.08-2.16-7.82-3.31-11.22l15.04-4.89c1.39,3.89,2.45,8.09,3.18,12.62.73,4.53,1.09,8.88,1.09,13.04,0,7.57-1.41,14-4.22,19.29-2.81,5.29-6.72,9.54-11.71,12.73-5,3.19-10.78,5.45-17.34,6.77l-5.73-14.99Z"/>
      <path class="cls-1" d="M370.09,108.91c-3.09,5.47-7.44,9.78-13.04,12.94-5.61,3.16-12.16,5.45-19.65,6.87l-5.57-14.99c4.62-.9,8.77-2,12.47-3.31s6.78-2.84,9.24-4.61c2.46-1.77,4.15-3.75,5.05-5.93-.8.14-1.59.25-2.37.34-.78.09-1.5.13-2.16.13-6.63,0-11.9-1.48-15.8-4.45-3.9-2.97-5.86-7.9-5.86-14.81,0-2.81.42-5.69,1.28-8.64.85-2.95,2.12-5.67,3.8-8.17s3.79-4.52,6.33-6.07c2.53-1.54,5.47-2.32,8.8-2.32,3.82,0,7.11.91,9.89,2.73,2.78,1.82,5.07,4.29,6.87,7.39s3.15,6.57,4.04,10.39c.88,3.82,1.33,7.74,1.33,11.77,0,8.36-1.54,15.28-4.63,20.75ZM357.75,84.02c1.18-.16,2.1-.3,2.76-.44-.14-1.01-.38-2.19-.73-3.54s-.82-2.68-1.41-3.98c-.59-1.3-1.36-2.38-2.32-3.23-.96-.85-2.14-1.28-3.57-1.28-1.56,0-2.79.53-3.67,1.59-.89,1.06-1.51,2.28-1.87,3.67-.37,1.39-.55,2.6-.55,3.64,0,1.74.73,2.8,2.19,3.2,1.46.4,3.18.6,5.15.6,1.49,0,2.83-.08,4.01-.23Z"/>
      <path class="cls-1" d="M384.43,20.2c-.57-1.13-.86-2.59-.86-4.4,0-3.12,1.08-5.69,3.25-7.7s4.64-3.02,7.42-3.02c1.53,0,2.79.17,3.77.49.99.33,2,.79,3.05,1.38l.05,6.35c-1.08-.56-2.09-.96-3.05-1.22-.96-.26-1.99-.39-3.1-.39-1.35,0-2.61.41-3.77,1.22s-1.74,2-1.74,3.57c.03.9.47,1.74,1.3,2.5.83.76,2.15,1.02,3.96.78.07,0,.13,0,.18-.03.05-.02.11-.04.18-.08l7.65-2.76.89,6.2-20.98,8.28-.88-5.99,5.31-2.03c-1.18-.97-2.06-2.02-2.63-3.15ZM400.81,100.19h-15.05V33.91h15.05v66.27Z"/>
      <path class="cls-1" d="M481.81,99.09c-2.5-.76-4.62-2-6.35-3.7-1.74-1.7-3.11-3.96-4.11-6.77-2.05,1.53-4.11,2.64-6.2,3.33-2.08.69-4.29,1.04-6.61,1.04-5.93,0-10.86-1.62-14.79-4.87-3.92-3.24-5.88-8.06-5.88-14.45,0-3.5.8-6.61,2.4-9.32,1.6-2.71,3.7-5.08,6.33-7.11,2.62-2.03,5.5-3.76,8.64-5.18,3.14-1.42,6.27-2.6,9.4-3.54l-.37-2.5,13.43-2.76,5.05,33.74c.28,1.91,1.06,3.57,2.34,4.97,1.28,1.41,3.12,2.11,5.52,2.11h1.56v16.14h-1.77c-3.23,0-6.09-.38-8.59-1.15ZM466.09,28.86l-9.32,9.27-9.11-9.27,9.11-9.16,9.32,9.16ZM468.25,70.25c-.09-.62-.2-1.27-.34-1.93l-.83-4.84c-1.56.52-3.19,1.12-4.89,1.8-1.7.68-3.29,1.44-4.76,2.29-1.48.85-2.68,1.76-3.62,2.73-.94.97-1.41,1.98-1.41,3.02,0,1.28.55,2.33,1.64,3.15,1.09.82,2.49,1.22,4.19,1.22,1.53,0,3.07-.2,4.63-.6s2.87-1.03,3.93-1.9c1.06-.87,1.59-1.96,1.59-3.28,0-.49-.04-1.04-.13-1.67ZM483.69,28.86l-9.21,9.27-9.21-9.27,9.21-9.16,9.21,9.16Z"/>
      <path class="cls-1" d="M518.05,57.42c2.39,1.54,4.53,3.11,6.4,4.68,1.87,1.58,3.47,3.22,4.79,4.92,1.32,1.7,2.32,3.52,2.99,5.47s1.02,4.08,1.02,6.4c0,5.69-1.3,10.08-3.91,13.17-2.6,3.09-6.2,5.22-10.78,6.4-4.58,1.18-9.84,1.77-15.77,1.77h-12.7v-16.14h12.65c3.54,0,6.52-.15,8.93-.44,2.41-.29,4.23-.83,5.47-1.61,1.23-.78,1.85-1.9,1.85-3.36,0-.73-.56-1.61-1.69-2.66s-2.6-2.18-4.42-3.41c-1.82-1.23-3.79-2.48-5.91-3.75s-4.17-2.51-6.17-3.72c-2-1.21-3.72-2.34-5.18-3.38-1.49-1.08-2.64-2.53-3.44-4.35-.8-1.82-1.2-3.69-1.2-5.6,0-2.05.47-3.97,1.41-5.78.94-1.8,2.38-3.09,4.32-3.85l40.71-16.61v15.98l-27.23,11.04c2.85,1.67,5.47,3.27,7.86,4.82Z"/>
      <path class="cls-1" d="M568.49,99.85c-1.32-.26-2.46-.65-3.44-1.17-.97,5.45-2.9,10.22-5.78,14.32-2.88,4.09-6.58,7.45-11.11,10.07-4.53,2.62-9.76,4.5-15.7,5.65l-5.57-14.99c4.89-1.08,9.19-2.43,12.88-4.06,3.7-1.63,6.57-3.9,8.62-6.79,2.05-2.9,3.07-6.76,3.07-11.58,0-3.19-.53-6.83-1.59-10.91-1.06-4.08-2.16-7.82-3.31-11.22l14.99-4.89,3.07,11.97c.55,2.12,1.35,3.96,2.4,5.52,1.04,1.56,2.67,2.34,4.89,2.34h2.03v16.14h-1.46c-1.35,0-2.69-.13-4.01-.39Z"/>
      <path class="cls-1" d="M603.37,84.1v16.14h-31.5v-16.14h31.5Z"/>
      <path class="cls-1" d="M632.79,84.1v16.14h-31.5v-16.14h31.5Z"/>
      <path class="cls-1" d="M658.22,98.49c-2.41-1.16-4.4-2.68-5.96-4.56-1.98,1.91-4.29,3.44-6.92,4.58-2.64,1.14-5.92,1.72-9.84,1.72h-4.79v-16.14h4.89c2.46,0,4.43-.15,5.91-.44,1.47-.29,2.55-.97,3.23-2.03s1.01-2.73,1.01-5.02c0-.52-.04-1.48-.1-2.89-.07-1.41-.17-2.93-.29-4.58-.12-1.65-.23-3.08-.34-4.29l13.9-1.72,1.14,14.68c.17,2.19.82,3.78,1.95,4.79,1.13,1.01,2.82,1.51,5.08,1.51,2.74,0,4.56-.52,5.47-1.56.9-1.04,1.35-3.02,1.35-5.93,0-.49-.04-1.43-.1-2.84-.07-1.41-.17-2.94-.29-4.61-.12-1.67-.23-3.11-.34-4.32l13.9-1.72,1.15,14.68c.14,2.01.63,3.57,1.48,4.66.85,1.09,2.32,1.64,4.4,1.64,1.28,0,2.29-.36,3.02-1.07.73-.71,1.25-1.67,1.56-2.86s.47-2.53.47-3.98c0-2.01-.19-4.1-.57-6.27-.38-2.17-.8-4.13-1.25-5.88-.45-1.75-.78-2.99-.99-3.72l14.32-3.9c.73,2.85,1.33,5.86,1.8,9.03.47,3.18.7,6.34.7,9.5,0,4.41-.58,8.54-1.74,12.39s-3.12,6.97-5.86,9.34c-2.74,2.38-6.53,3.57-11.35,3.57-3.09,0-5.71-.63-7.86-1.9-2.15-1.27-3.97-2.77-5.47-4.5-1.74,1.7-3.71,3.19-5.93,4.48-2.22,1.29-4.88,1.93-7.96,1.93-3.44,0-6.36-.58-8.77-1.74ZM677.66,46.72l-8.64,8.64-8.64-8.64,8.64-8.64,8.64,8.64ZM686.78,33.39l-8.64,8.64-8.64-8.64,8.64-8.64,8.64,8.64ZM695.94,46.72l-8.64,8.64-8.64-8.64,8.64-8.64,8.64,8.64Z"/>
      <path class="cls-1" d="M35.41,194.01c.42.78.95,1.41,1.59,1.9.63.49,1.31.73,2.03.73h.86v3.65h-.86c-.99,0-1.97-.26-2.92-.78s-1.71-1.27-2.27-2.25c-.48,1.1-1.22,1.95-2.22,2.52-1,.58-2.28.87-3.83.87-.93,0-1.87-.15-2.84-.46-.96-.3-1.88-.65-2.76-1.04s-1.69-.74-2.43-1.04c-.74-.3-1.37-.46-1.9-.46-.8,0-1.43.2-1.9.59s-.82.99-1.06,1.8-.4,1.85-.47,3.11c-.07,1.26-.11,2.77-.11,4.52,0,1.04.01,1.98.04,2.81.02.83.06,1.65.11,2.44s.1,1.69.17,2.68h-3.44c-.08-1.43-.14-2.76-.18-4s-.06-2.5-.06-3.76c0-1.76.05-3.44.14-5.02.1-1.59.34-3.01.72-4.28.38-1.27.99-2.31,1.8-3.12.82-.82,1.95-1.35,3.39-1.59.43-1.47.92-2.82,1.45-4.04.54-1.22,1.17-2.28,1.9-3.18.73-.91,1.58-1.6,2.55-2.09.97-.49,2.09-.73,3.35-.73,1.42,0,2.73.34,3.92,1.02,1.19.68,2.17,1.61,2.94,2.78.78,1.17,1.27,2.49,1.48,3.96.11.86.38,1.69.81,2.46ZM30.75,190.37c-.42-.93-1.02-1.67-1.79-2.22-.77-.55-1.64-.83-2.62-.83-.85,0-1.59.2-2.21.61-.62.41-1.17.96-1.62,1.66-.46.7-.85,1.47-1.19,2.31-.34.84-.63,1.7-.89,2.58,1.06.43,2.05.85,2.99,1.25.94.4,1.79.72,2.55.97.76.25,1.38.37,1.86.37,1.14,0,2.01-.32,2.63-.97.62-.65.92-1.52.92-2.61,0-1.15-.21-2.19-.64-3.12Z"/>
      <path class="cls-1" d="M42.82,207.46l-2.91,2.93-2.88-2.93,2.88-2.88,2.91,2.88ZM40.8,196.64v3.65h-1.92v-3.65h1.92ZM51.64,186.39l.36,5.24c.06,1.09.31,2.01.74,2.75.43.74,1.01,1.31,1.73,1.69.72.38,1.57.58,2.55.58h.72v3.65h-.77c-1.19,0-2.21-.18-3.08-.54-.86-.36-1.59-.84-2.17-1.43-.58-.59-1.05-1.24-1.38-1.95-.77,1.35-1.85,2.33-3.26,2.97s-2.94.95-4.6.95h-2.28v-3.65h2.28c2.07,0,3.59-.47,4.58-1.42.98-.94,1.48-2.45,1.48-4.52,0-.72-.02-1.41-.06-2.05s-.08-1.28-.13-1.89l3.29-.38ZM50.13,207.46l-2.91,2.93-2.88-2.93,2.88-2.88,2.91,2.88Z"/>
      <path class="cls-1" d="M56.78,200.3v-3.65h1.08c1.09,0,2.01-.31,2.76-.92.75-.62,1.42-1.41,2.01-2.39.58-.98,1.16-2.01,1.72-3.11.56-1.1,1.19-2.13,1.87-3.11.69-.98,1.53-1.77,2.51-2.39.98-.62,2.2-.93,3.64-.93,1.6,0,2.97.34,4.1,1.02,1.13.68,2.04,1.61,2.74,2.78.7,1.17,1.17,2.5,1.43,3.99.19.99.5,1.87.92,2.64.42.77.94,1.37,1.55,1.79.61.42,1.27.64,2,.64h.84v3.65h-.84c-1.04,0-2.05-.26-3.02-.79-.97-.53-1.73-1.26-2.27-2.19-.59,1.09-1.4,1.95-2.42,2.58-1.02.63-2.3.95-3.86.95-1.15,0-2.21-.19-3.18-.57-.97-.38-1.9-.9-2.8-1.56-.9-.66-1.8-1.43-2.71-2.29-.64.79-1.27,1.47-1.9,2.04-.62.58-1.33,1.03-2.11,1.35s-1.75.48-2.88.48h-1.18ZM69.96,188.23c-.71.61-1.34,1.37-1.9,2.28s-1.05,1.83-1.48,2.74c.56.58,1.12,1.1,1.68,1.57.56.47,1.11.88,1.63,1.21.67.42,1.31.73,1.92.95.61.22,1.17.32,1.68.32,1.28,0,2.25-.34,2.92-1.02s1-1.65,1-2.92c0-1.75-.44-3.19-1.31-4.34-.87-1.15-2.11-1.72-3.71-1.72-.91,0-1.73.3-2.44.91Z"/>
      <path class="cls-1" d="M99.53,196.64v3.65h-14.54v-3.65h14.54Z"/>
      <path class="cls-1" d="M113.1,196.64v3.65h-14.54v-3.65h14.54Z"/>
      <path class="cls-1" d="M126.68,196.64v3.65h-14.54v-3.65h14.54Z"/>
      <path class="cls-1" d="M140.26,196.64v3.65h-14.54v-3.65h14.54Z"/>
      <path class="cls-1" d="M153.83,196.64v3.65h-14.54v-3.65h14.54Z"/>
      <path class="cls-1" d="M167.41,196.64v3.65h-14.54v-3.65h14.54Z"/>
      <path class="cls-1" d="M180.98,196.64v3.65h-14.54v-3.65h14.54Z"/>
      <path class="cls-1" d="M194.56,196.64v3.65h-14.54v-3.65h14.54Z"/>
      <path class="cls-1" d="M208.13,196.64v3.65h-14.54v-3.65h14.54Z"/>
      <path class="cls-1" d="M221.71,196.64v3.65h-14.54v-3.65h14.54Z"/>
      <path class="cls-1" d="M235.28,196.64v3.65h-14.54v-3.65h14.54Z"/>
      <path class="cls-1" d="M248.86,196.64v3.65h-14.54v-3.65h14.54Z"/>
      <path class="cls-1" d="M262.44,196.64v3.65h-14.54v-3.65h14.54Z"/>
      <path class="cls-1" d="M276.01,196.64v3.65h-14.54v-3.65h14.54Z"/>
      <path class="cls-1" d="M294.92,200.3c-2.1,0-3.89-.12-5.37-.37-1.48-.25-2.68-.65-3.6-1.21s-1.63-1.31-2.13-2.23c-.85,1.31-1.85,2.28-3,2.89-1.15.62-2.71.93-4.66.93h-1.11l.02-3.65h1.1c2.26-.02,3.81-.52,4.65-1.51s1.26-2.45,1.26-4.37c0-.72-.02-1.39-.07-1.99-.05-.61-.09-1.27-.12-2l3.29-.38.36,5.24c.1,1.2.36,2.21.8,3.04s1.11,1.28,2.01,1.36c1.31-2.26,2.64-4.27,3.99-6.04,1.35-1.77,2.71-3.28,4.08-4.52,1.38-1.24,2.77-2.19,4.18-2.83,1.41-.65,2.85-.97,4.33-.97,1.76,0,3.32.38,4.69,1.14,1.36.76,2.43,1.79,3.2,3.1.77,1.31,1.15,2.78,1.15,4.41-.02,1.15-.2,2.19-.56,3.11s-.88,1.77-1.55,2.56c.42.14.86.27,1.32.37.46.1,1.03.18,1.69.23.66.05,1.51.07,2.54.07h.91v3.65h-.89c-2.03,0-3.69-.2-4.97-.61-1.28-.41-2.38-.98-3.29-1.72-1.36.79-3.12,1.37-5.26,1.75-2.15.38-4.58.58-7.3.58h-1.68ZM301.78,186.12c-1.11.54-2.22,1.32-3.32,2.33-1.1,1.01-2.19,2.21-3.27,3.6s-2.16,2.92-3.23,4.59h4.54c2.16,0,4.1-.1,5.81-.31s3.18-.55,4.38-1.02c1.21-.47,2.13-1.1,2.78-1.87.64-.78.96-1.73.96-2.87,0-1.52-.49-2.78-1.48-3.77s-2.26-1.49-3.83-1.49c-1.12,0-2.24.27-3.35.82Z"/>
      <path class="cls-1" d="M319.07,196.64v3.65h-1.71v-3.65h1.71ZM323.23,178.24l-2.93,2.93-2.88-2.93,2.88-2.88,2.93,2.88ZM329.86,186.39l.36,5.24c.06,1.09.31,2.01.75,2.75.43.74,1.01,1.31,1.73,1.69.72.38,1.57.58,2.55.58h.72v3.65h-.77c-1.19,0-2.21-.18-3.08-.54s-1.59-.84-2.17-1.43c-.58-.59-1.04-1.24-1.38-1.95-.77,1.35-1.85,2.33-3.26,2.97-1.4.63-2.94.95-4.6.95h-2.28v-3.65h2.28c2.07,0,3.59-.47,4.58-1.42.99-.94,1.48-2.45,1.48-4.52,0-.72-.02-1.41-.06-2.05-.04-.65-.08-1.28-.13-1.89l3.29-.38ZM330.53,178.24l-2.93,2.93-2.88-2.93,2.88-2.88,2.93,2.88Z"/>
      <path class="cls-1" d="M336.95,196.64c2.05,0,3.45-.57,4.21-1.71.75-1.14,1.13-2.59,1.13-4.37v-23h3.34v22.97c0,3.22-.69,5.65-2.07,7.29s-3.59,2.46-6.63,2.46h-1.92v-3.65h1.95Z"/>
      <path class="cls-1" d="M356.7,200.27h-3.36v-32.7h3.36v32.7Z"/>
      <path class="cls-1" d="M377.82,204.54c-1.12,2.24-2.78,4.06-4.97,5.48-2.19,1.42-4.91,2.45-8.14,3.09l-1.2-3.15c2.55-.54,4.71-1.28,6.48-2.2,1.77-.92,3.17-2.06,4.19-3.41,1.02-1.35,1.67-2.93,1.92-4.72-.66.21-1.41.39-2.25.54-.84.15-1.61.23-2.32.23-2.72,0-4.81-.58-6.25-1.73s-2.16-2.95-2.16-5.38c0-1.17.17-2.33.5-3.5.34-1.16.83-2.22,1.49-3.17.66-.95,1.47-1.72,2.44-2.29.97-.58,2.07-.87,3.3-.87,1.54,0,2.86.38,3.95,1.13,1.1.75,1.99,1.76,2.68,3.03s1.2,2.67,1.53,4.23c.33,1.55.49,3.12.49,4.71,0,3.09-.56,5.75-1.68,7.99ZM373.91,196.58c.78-.12,1.53-.29,2.27-.52-.06-1.28-.21-2.47-.45-3.56-.23-1.09-.56-2.05-.98-2.87-.42-.83-.96-1.46-1.6-1.91s-1.42-.67-2.33-.67c-1.12,0-2,.34-2.63,1.01-.63.67-1.08,1.48-1.35,2.42-.26.94-.4,1.82-.4,2.66,0,1.31.44,2.25,1.33,2.8.89.55,2.17.83,3.86.83.74,0,1.49-.06,2.27-.18Z"/>
      <path class="cls-1" d="M416.2,199.49c-1.03-.54-1.85-1.3-2.45-2.28s-1.02-2.15-1.26-3.5c-.85,1.04-1.85,1.85-3.01,2.42-1.16.57-2.45.85-3.86.85-2.21,0-4.06-.59-5.55-1.78-1.49-1.19-2.23-2.83-2.23-4.93,0-1.27.28-2.43.85-3.48s1.4-2.03,2.49-2.91c1.09-.88,2.41-1.69,3.95-2.43,1.55-.74,3.3-1.41,5.27-2.02l-.14-1.06,3.2-.65,2.04,14.39c.21,1.51.68,2.64,1.43,3.39.75.75,1.82,1.13,3.23,1.13h.94v3.65h-1.01c-1.55,0-2.85-.27-3.88-.8ZM411.63,187.84c-.02-.23-.04-.48-.07-.73l-.67-4.42c-1.46.51-2.78,1.04-3.95,1.6-1.18.55-2.19,1.12-3.03,1.71s-1.49,1.21-1.93,1.87c-.45.67-.67,1.39-.67,2.17,0,1.19.4,2.08,1.2,2.68s1.86.9,3.17.9c1.02,0,1.99-.2,2.91-.61.91-.41,1.65-.99,2.22-1.75.57-.76.85-1.65.85-2.68,0-.26,0-.5-.02-.73ZM408.33,170.79l-2.91,2.93-2.88-2.93,2.88-2.88,2.91,2.88ZM415.64,170.79l-2.91,2.93-2.88-2.93,2.88-2.88,2.91,2.88Z"/>
      <path class="cls-1" d="M420.13,200.3v-3.65h3.87c1.71,0,2.88-.49,3.51-1.47.62-.98.94-2.25.94-3.82,0-.99-.08-2.07-.25-3.22-.17-1.15-.36-2.3-.56-3.44l3.48-.89c.24,1.19.43,2.38.58,3.57.14,1.19.22,2.32.22,3.38,0,1.87-.25,3.53-.76,4.96s-1.33,2.55-2.47,3.36c-1.15.81-2.69,1.21-4.63,1.21h-3.92ZM430.01,176.03l-3.03,3.03-3.03-3.03,3.03-3.03,3.03,3.03Z"/>
      <path class="cls-1" d="M441.71,167.57v22.97c0,2.32.42,3.92,1.27,4.79.85.87,2.15,1.31,3.89,1.31h.82v3.65h-.82c-2.93,0-5.09-.79-6.46-2.38-1.38-1.59-2.07-4.04-2.07-7.38v-22.97h3.36Z"/>
      <path class="cls-1" d="M461.27,196.64v3.65h-14.54v-3.65h14.54Z"/>
      <path class="cls-1" d="M474.84,196.64v3.65h-14.54v-3.65h14.54Z"/>
      <path class="cls-1" d="M488.42,196.64v3.65h-14.54v-3.65h14.54Z"/>
      <path class="cls-1" d="M501.99,196.64v3.65h-14.54v-3.65h14.54Z"/>
      <path class="cls-1" d="M515.57,196.64v3.65h-14.54v-3.65h14.54Z"/>
      <path class="cls-1" d="M529.15,196.64v3.65h-14.54v-3.65h14.54Z"/>
      <path class="cls-1" d="M542.72,196.64v3.65h-14.54v-3.65h14.54Z"/>
      <path class="cls-1" d="M556.3,196.64v3.65h-14.54v-3.65h14.54Z"/>
      <path class="cls-1" d="M569.87,196.64v3.65h-14.54v-3.65h14.54Z"/>
      <path class="cls-1" d="M583.45,196.64v3.65h-14.54v-3.65h14.54Z"/>
      <path class="cls-1" d="M597.02,196.64v3.65h-14.54v-3.65h14.54Z"/>
      <path class="cls-1" d="M610.6,196.64v3.65h-14.54v-3.65h14.54Z"/>
      <path class="cls-1" d="M624.18,196.64v3.65h-14.54v-3.65h14.54Z"/>
      <path class="cls-1" d="M637.75,196.64v3.65h-14.54v-3.65h14.54Z"/>
      <path class="cls-1" d="M657.87,192.01c-.34.83-.8,1.62-1.36,2.35-.56.74-1.19,1.45-1.9,2.14.62.03,1.27.06,1.92.08.66.02,1.28.04,1.86.05.58,0,1.08.01,1.5.01h2.33v3.65h-2.26c-.69,0-1.59-.05-2.69-.14-1.11-.1-2.28-.26-3.52-.48-1.24-.22-2.43-.54-3.57-.94-1.14.42-2.34.74-3.6.96-1.27.22-2.47.38-3.6.47-1.14.09-2.08.13-2.83.13h-3.36v-3.65h3.36c.5,0,1.05,0,1.67-.01.62,0,1.27-.02,1.97-.05.7-.02,1.4-.06,2.1-.11-.67-.69-1.29-1.41-1.85-2.15-.56-.75-1.01-1.53-1.34-2.37-.34-.83-.5-1.72-.5-2.67s.22-1.93.67-2.91c.45-.98,1.05-1.87,1.81-2.69.76-.82,1.62-1.47,2.58-1.97.96-.5,1.95-.74,2.96-.74s2.07.25,3.05.74c.98.5,1.85,1.15,2.62,1.97.77.82,1.38,1.72,1.83,2.7s.67,1.97.67,2.94-.17,1.83-.52,2.67ZM649.4,173.82l-2.91,2.93-2.88-2.93,2.88-2.88,2.91,2.88ZM648.09,185.27c-.71.5-1.31,1.13-1.78,1.87-.47.75-.71,1.49-.71,2.25,0,.83.24,1.66.73,2.49s1.09,1.57,1.81,2.23c.72.67,1.43,1.18,2.11,1.55.8-.37,1.57-.88,2.29-1.55.73-.66,1.32-1.41,1.78-2.25.46-.83.69-1.67.69-2.52,0-.72-.25-1.45-.75-2.2-.5-.75-1.11-1.37-1.85-1.87-.74-.5-1.47-.76-2.21-.76s-1.41.25-2.13.76ZM656.71,173.82l-2.91,2.93-2.88-2.93,2.88-2.88,2.91,2.88Z"/>
      <path class="cls-1" d="M664.09,196.64v3.65h-2.81v-3.65h2.81ZM668.31,178.24l-2.91,2.93-2.88-2.93,2.88-2.88,2.91,2.88ZM674.97,186.39l.36,5.24c.06,1.09.31,2.01.74,2.75.43.74,1.01,1.31,1.73,1.69.72.38,1.57.58,2.55.58h.72v3.65h-.77c-1.19,0-2.21-.18-3.08-.54-.86-.36-1.59-.84-2.17-1.43-.58-.59-1.05-1.24-1.38-1.95-.77,1.35-1.85,2.33-3.26,2.97-1.4.63-2.94.95-4.6.95h-2.28v-3.65h2.28c2.07,0,3.59-.47,4.58-1.42.99-.94,1.48-2.45,1.48-4.52,0-.72-.02-1.41-.06-2.05s-.08-1.28-.13-1.89l3.29-.38ZM675.62,178.24l-2.91,2.93-2.88-2.93,2.88-2.88,2.91,2.88Z"/>
      <path class="cls-1" d="M687.39,167.57h3.34v22.63c0,1.22.16,2.31.48,3.29.32.98.85,1.75,1.59,2.31.74.56,1.73.84,2.98.84h.94v3.65h-.91c-1.2,0-2.22-.16-3.06-.49-.84-.33-1.55-.79-2.13-1.38-.58-.59-1.05-1.28-1.42-2.07-.51.88-1.05,1.61-1.61,2.2s-1.27,1.02-2.11,1.31c-.85.29-1.98.43-3.39.43h-1.97v-3.65h1.95c1.41,0,2.5-.27,3.26-.82.76-.54,1.3-1.3,1.61-2.28.31-.98.47-2.11.47-3.39v-22.59Z"/>
      <path class="cls-1" d="M697.7,196.64c2.05,0,3.45-.57,4.21-1.71.75-1.14,1.13-2.59,1.13-4.37v-23h3.34v22.97c0,3.22-.69,5.65-2.07,7.29s-3.59,2.46-6.63,2.46h-1.92v-3.65h1.95Z"/>
    </g>
    <path class="cls-1" d="M6.99,146.31c228.8-2.01,473.05-1.98,702.05,0-229.06,1.98-473.19,2.01-702.05,0h0Z"/>
  </g>
  <g>
    <path class="cls-1" d="M979.09,197.63c-16.37,10.42-35.8,16.45-56.64,16.45-58.33,0-105.61-47.29-105.61-105.62,0-11.24,1.75-22.07,5.01-32.23,7.69,8.28,16.51,17.05,26.26,26.08-.17,2.03-.25,4.08-.25,6.15,0,41.2,33.4,74.6,74.59,74.6,8.68,0,17-1.48,24.74-4.2,11.24,7.17,21.96,13.47,31.9,18.77Z"/>
    <path class="cls-1" d="M1019.21,150.86c5.7-12.98,8.85-27.32,8.85-42.4,0-58.33-47.29-105.61-105.61-105.61-24.57,0-47.19,8.39-65.13,22.47-31.42-16.56-54.68-22.87-61.03-14.69-6.35,8.19,5.55,29.13,29.4,55.43,7.09,7.82,15.24,16.11,24.28,24.68,15.07,14.29,32.61,29.35,51.87,44.29,19.26,14.94,38.21,28.18,55.8,39.21,10.55,6.62,20.6,12.45,29.94,17.37,31.42,16.56,54.68,22.87,61.03,14.69,6.35-8.19-5.55-29.13-29.4-55.43ZM987.4,145.53c-1.75,3.29-3.81,6.43-6.35,8.78-1.74,1.61-3.46,1.67-5.8,1.46-4.76-.42-9.46-2.39-13.79-4.28-14.68-6.43-28.29-15.52-41.17-24.97-2.51-1.84-5-3.72-7.46-5.63-13.4-10.4-26.42-21.67-37.59-34.48-4.02-4.61-14.73-15.37-12.31-22.57.79-2.36,3.35-4.51,4.99-6.27,2.96-3.17,6.2-6.08,9.67-8.69,25.33-19.05,61.08-19.56,87.22-1.75,3.67,2.5,7.12,5.34,10.27,8.48,21.1,21.05,27.76,54.39,16.06,81.85-1.09,2.56-2.31,5.37-3.74,8.07Z"/>
  </g>
</svg>