<?xml version="1.0" encoding="UTF-8"?>
<svg id="Layer_1" data-name="Layer 1" xmlns="http://www.w3.org/2000/svg" viewBox="0 0 1447.82 1196.01">
  <defs>
    <style>
      .cls-1 {
        fill: #29abe2;
        /* fill: #fff; */
        /* fill: #000; */
        stroke-width: 0px;
      }
    </style>
  </defs>
  <path class="cls-1" d="M1044.61,1102.85c-92.67,58.99-202.69,93.17-320.7,93.17-330.27,0-598-267.73-598-598.02,0-63.65,9.94-124.96,28.37-182.49,43.54,46.89,93.46,96.54,148.69,147.67-.95,11.48-1.42,23.09-1.42,34.81,0,233.26,189.1,422.38,422.36,422.38,49.12,0,96.25-8.39,140.09-23.8,63.65,40.6,124.36,76.28,180.61,106.28Z"/>
  <path class="cls-1" d="M1271.77,838.08c32.25-73.49,50.14-154.7,50.14-240.08C1321.91,267.73,1054.17,0,723.91,0c-139.14,0-267.19,47.52-368.8,127.22C177.19,33.44,45.51-2.28,9.57,44.06c-35.94,46.35,31.42,164.95,166.48,313.87,40.15,44.27,86.3,91.23,137.49,139.76,85.32,80.91,184.66,166.19,293.72,250.76,109.05,84.56,216.37,159.54,315.96,222.02,59.72,37.5,116.65,70.47,169.49,98.33,177.92,93.78,309.6,129.5,345.54,83.16,35.94-46.35-31.42-164.95-166.48-313.87ZM1091.65,807.86c-9.88,18.66-21.57,36.42-35.97,49.71-9.86,9.1-19.59,9.44-32.84,8.26-26.94-2.4-53.58-13.52-78.09-24.25-83.11-36.41-160.2-87.85-233.1-141.37-14.23-10.45-28.31-21.08-42.26-31.9-75.9-58.86-149.57-122.69-212.82-195.21-22.78-26.12-83.4-87.03-69.68-127.81,4.49-13.35,18.97-25.56,28.23-35.48,16.77-17.96,35.13-34.43,54.77-49.19,143.44-107.85,345.81-110.77,493.87-9.91,20.8,14.17,40.3,30.25,58.12,48.03,119.45,119.17,157.2,307.96,90.92,463.47-6.18,14.5-13.07,30.38-21.16,45.67Z"/>
</svg>