<!-- <?xml version="1.0" encoding="UTF-8"?> -->
<svg id="Capa_1" data-name="Capa 1" xmlns="http://www.w3.org/2000/svg" version="1.1" viewBox="0 0 488 488">
  <defs>
    <style>
      .cls-1 {
        fill: #ffedb9;
      }

      .cls-1, .cls-2, .cls-3, .cls-4, .cls-5, .cls-6, .cls-7, .cls-8 {
        stroke-width: 0px;
      }

      .cls-2 {
        fill: #0bb;
      }

      .cls-3 {
        fill: none;
      }

      .cls-4 {
        fill: #ffd586;
      }

      .cls-5 {
        fill: #b6b8be;
      }

      .cls-6 {
        fill: #0e94d7;
      }

      .cls-7 {
        fill: #48bbee;
      }

      .cls-8 {
        fill: #00e389;
      }
    </style>
  </defs>
  <g>
    <path class="cls-7" d="M259.6,86.4c.5,0,1.1.2,1.6.3-.5-.1-1.1-.2-1.6-.3Z"/>
    <path class="cls-7" d="M284.8,92.9c12.8,4.5,24.9,10.5,35.9,17.9,0,0,0,0,0,0,11.2,7.4,21.3,16.3,30.3,26.2h0c2.8,3.1,5.4,6.3,7.9,9.6h0c1.9,2.5,3.7,5,5.5,7.6.1.2.3.4.4.6,1.6,2.4,3.2,4.9,4.7,7.4.2.4.4.7.7,1.1,1.1,1.9,2.2,3.9,3.3,5.9h0c9,17,15,35.7,17.4,55.6-.4,0-.8,0-1.1,0l-51.4-16.3,2.4,10.7c.5,2.2,1.9,4.1,3.9,5.2,2,1.1,4.3,1.3,6.4.6l5.9-2c.8-.3,1.7-.1,2.4.4.7.5,1.1,1.3,1.1,2.2v14.5h0c0,5.9-2.8,11.5-7.6,15l-15.3,12.3c-2.4,1.9-5.8,1.5-7.6-1l-24.7-32.9c-2.6-3.5-6.2-6.1-10.3-7.4l-9.7-3.2,40.4,52.4c3.6,3,8.3,4.6,13.2,4.3l7.6-.5c.8,0,1.6.3,2.2.9.5.6.8,1.4.6,2.3l-3.1,17.2c-.1.6-.4,1.1-.8,1.5l-31.2,29.4-23.3,59c-.3.8-.9,1.4-1.7,1.6-2.9.8-5.9,1.3-8.9,1.3-5.4,0-10.8-1.4-15.7-4.1-7.5-4.2-12.9-11-15.1-19.3-1.8-6.5-2.7-10.9-2.7-13.3v-22.3l-3.6-1.4c-8.3-3.2-15.6-8.5-21.2-15.5l-8.2-10.2-35.4,6.3c-1.5.3-3.1.4-4.6.4,10.2,37.8,34,70,65.7,91.2-2.4.1-4.8.2-7.3.2,88.4,0,160-71.6,160-160,0-69.9-44.8-129.3-107.2-151.1Z"/>
    <path class="cls-7" d="M209.5,209.1c5.7,0,11.3,1.7,16.2,4.9l13.7,9.1c2.7,1.8,6.2,2.3,9.3,1.2l24.6-8.2,4.1-3.7c2.5-2.2,3.9-5.4,3.9-8.7,0-2.8-1.1-5.6-2.9-7.7l-26,7.7c-.9.3-1.9,0-2.6-.6l-17.5-16c-1.2-1.1-2.5-.7-2.8-.5-.4.2-1.6.8-1.6,2.3l1.5,11.9c.1,1.1-.4,2.2-1.4,2.7-1,.5-2.2.4-3-.4l-14.5-12.9c-5-2.6-11.1-1.8-15.3,2l-4.6,11.7c-.7,1.8-1.9,3.4-3.5,4.6l-7.4,5.5,24.8-4.4c1.7-.3,3.4-.5,5.1-.5Z"/>
    <path class="cls-7" d="M239.5,84.2c.4,0,.7,0,1.1,0-.4,0-.7,0-1.1,0Z"/>
    <path class="cls-7" d="M308.8,179c1.1,0,2.2-.3,3.1-1,.3-.2.5-.4.8-.7.7-.7,1.1-1.7,1.3-2.6h0c.3-1.4,0-2.9-.9-4.2l-13.7-18.7c-1.7-2.4-5.1-2.9-7.4-1.2-2.4,1.7-2.9,5.1-1.2,7.5l13.7,18.7c1,1.4,2.7,2.2,4.3,2.2Z"/>
    <path class="cls-7" d="M266.7,87.8c1,.2,2.1.5,3.1.7-1-.2-2-.5-3.1-.7Z"/>
    <path class="cls-7" d="M263.1,87c.6.1,1.1.2,1.7.3-.6-.1-1.1-.2-1.7-.3Z"/>
    <path class="cls-7" d="M235.7,84c.4,0,.7,0,1.1,0-.4,0-.7,0-1.1,0Z"/>
    <path class="cls-7" d="M282,92c.9.3,1.7.6,2.6.9-.9-.3-1.7-.6-2.6-.9Z"/>
    <path class="cls-7" d="M244.2,84.5c.2,0,.4,0,.5,0-.2,0-.4,0-.5,0Z"/>
    <path class="cls-7" d="M274.2,89.6c2.5.7,5,1.4,7.5,2.2-2.5-.8-5-1.6-7.5-2.2Z"/>
    <path class="cls-7" d="M271,88.8c.7.2,1.4.4,2.1.5-.7-.2-1.4-.4-2.1-.5Z"/>
    <path class="cls-7" d="M279.7,184.1s0,0,0,0l8.3-6.1c.3-.3.6-.6.8-.9h.1c1.5-1.9,1.6-4.6.1-6.6-1.7-2.4-5.1-2.9-7.5-1.1l-6.9,5.1h-13.1c-2.9,0-5.3,2.4-5.3,5.3s2.4,5.3,5.3,5.3h14.8c1.1,0,2.2-.4,3.1-1Z"/>
    <path class="cls-7" d="M251.5,85.2c.4,0,.9.1,1.3.2-.4,0-.9-.1-1.3-.2Z"/>
    <path class="cls-7" d="M256.1,85.8c.4,0,.8.1,1.3.2-.4,0-.8-.1-1.3-.2Z"/>
    <path class="cls-7" d="M247.8,84.8c.4,0,.9,0,1.3.1-.4,0-.9,0-1.3-.1Z"/>
    <path class="cls-8" d="M312.7,177.3c-.2.2-.5.5-.8.7.3-.2.5-.4.8-.7Z"/>
    <path class="cls-8" d="M292.2,276.3l-.6.9c-4,5.9-10.6,9.5-17.7,9.5h-62.5c-7.1,0-13.8,3.6-17.8,9.5l-10,15.1-5.5,1c-4.1.7-8.2.4-12-.9,2.4.8,4.9,1.2,7.4,1.3,1.5,0,3,0,4.6-.4l35.4-6.3,8.2,10.2c5.6,6.9,12.9,12.3,21.2,15.5l3.6,1.4v22.3c0,2.4.9,6.8,2.7,13.3,2.3,8.2,7.7,15.1,15.1,19.3,4.9,2.7,10.2,4.1,15.7,4.1s6-.4,8.9-1.3c.8-.2,1.4-.8,1.7-1.6l23.3-59,31.2-29.4c.4-.4.7-.9.8-1.5l3.1-17.2c.1-.8,0-1.6-.6-2.3-.6-.6-1.4-.9-2.2-.9l-7.6.5c-4.9.3-9.6-1.3-13.2-4.3l-23-3.4c-4.1-.6-8.2,1.2-10.4,4.6Z"/>
    <path class="cls-8" d="M276.6,185.1c1.1,0,2.2-.4,3.1-1-.9.7-2,1-3.1,1h0Z"/>
    <path class="cls-8" d="M368.1,206.2l3.4,12.7-33.2-10.5,51.4,16.3c.4.1.8.1,1.1,0-2.4-19.9-8.4-38.7-17.4-55.6l-5,16.7c-2,6.6-2.1,13.7-.3,20.4Z"/>
    <path class="cls-8" d="M358.9,146.6h0s0,0,0,0Z"/>
    <path class="cls-8" d="M364.4,154.2c.1.2.3.4.4.6-.1-.2-.3-.4-.4-.6Z"/>
    <path class="cls-8" d="M369.5,162.1c.2.4.4.7.7,1.1-.2-.4-.4-.7-.7-1.1Z"/>
    <path class="cls-8" d="M239.4,223.1l-13.7-9.1,18,11.9,29.6-9.9-24.6,8.2c-3.1,1-6.5.6-9.3-1.2Z"/>
    <path class="cls-8" d="M254.5,85.6c0,0,.2,0,.3,0,8.7,1.2,17.2,3.2,25.4,5.8.6.2,1.2.4,1.8.6,3.4,1.1,6.7,2.3,10,3.6,1.1.4,2.2.9,3.2,1.4,2.7,1.2,5.4,2.4,8.1,3.7,1.2.6,2.4,1.3,3.6,1.9,2.5,1.3,4.9,2.7,7.3,4.1,1.2.7,2.4,1.5,3.6,2.2.9.6,1.8,1.2,2.7,1.8-65.2,3-120.2,45.1-142.2,103.4l1.3-.2,7.4-5.5c1.6-1.2,2.8-2.8,3.5-4.6l4.6-11.7c4.2-3.9,10.3-4.7,15.3-2l14.5,12.9c.8.7,2,.9,3,.4,1-.5,1.5-1.6,1.4-2.7l-1.5-11.9c0-1.6,1.3-2.2,1.6-2.3.4-.2,1.7-.6,2.8.5l17.5,16c.7.6,1.7.9,2.6.6l26-7.7-14.3,4.3-1.4-2.4c-2.3-4.2-1.5-9.4,2-12.6h-2.8c-2.9,0-5.3-2.4-5.3-5.3s2.4-5.3,5.3-5.3h13.1l6.9-5.1c2.4-1.8,5.7-1.2,7.5,1.1,1.5,2,1.3,4.7-.1,6.5l7-2.3h6.9l1.6,2.1-13.7-18.7c-1.7-2.4-1.2-5.7,1.2-7.5,2.4-1.7,5.7-1.2,7.4,1.2l13.7,18.7c.9,1.2,1.2,2.7.9,4.1l10.6-2.9c5.6-1.5,10.3-5.3,13.1-10.3l13.3-24.3c-8.9-9.9-19.1-18.8-30.3-26.2-19.5-13-41.9-21.8-66.1-25.2h0Z"/>
    <path class="cls-2" d="M149.2,150l5.3,3.2-2.9,13.3c-.6,2.9,1.2,5.7,4.1,6.4.4,0,.8.1,1.2.1,2.4,0,4.7-1.7,5.2-4.2l3.8-17c.5-2.2-.5-4.5-2.4-5.7l-8.5-5.2c-2.5-1.6-5.8-.8-7.3,1.8-1.5,2.5-.8,5.8,1.8,7.3Z"/>
    <path class="cls-2" d="M178.3,214.2c22-58.3,77-100.3,142.2-103.4-.9-.6-1.8-1.2-2.7-1.8-1.2-.8-2.4-1.5-3.6-2.2-2.4-1.4-4.8-2.8-7.3-4.1-1.2-.6-2.4-1.3-3.6-1.9-2.6-1.3-5.3-2.5-8.1-3.7-1.1-.5-2.1-1-3.2-1.4-3.3-1.3-6.6-2.5-10-3.6-.6-.2-1.2-.4-1.8-.6-8.2-2.6-16.7-4.5-25.4-5.8,0,0-.2,0-.3,0h0l-8.9,14.5c-.3.6-.9,1.1-1.6,1.3-.7.2-1.4.1-2.1-.3l-23.4-13.5c-1-.6-2.2-.5-3,.2l-33.4,26.9c-5.7,4.6-8.9,11.4-8.9,18.7v7.3c0,.8.4,1.6,1,2.1.6.5,1.4.7,2.2.6l23.7-4.7-3.7,6.4c-.9,1.6-2.1,2.9-3.5,4l-21.2,16c-.7.5-1.1,1.3-1.1,2.1v12.6l-7.1.8c-7.1.7-12.3,6.9-11.9,14l.4,7.1c.3,5.7,4.2,10.6,9.7,12.1l7.2,2,9.2-1.8Z"/>
    <path class="cls-2" d="M144.2,265.6c0-.2.1-.4.1-.6,0,.2-.1.4-.1.6Z"/>
    <path class="cls-2" d="M146.6,257.9c0,0,0-.2.1-.2,0,0,0,.2-.1.2Z"/>
    <path class="cls-2" d="M143.7,268.2c0-.5.2-.9.2-1.4,0,.5-.2.9-.2,1.4Z"/>
    <path class="cls-2" d="M144.8,263s0,0,0,0c0,0,0,0,0,0Z"/>
    <path class="cls-2" d="M146.3,289c-.9-2.3-1.6-4.7-2.1-7.1,0-.3-.1-.7-.2-1-.3-1.5-.5-3.1-.6-4.6,0-1,0-1.9,0-2.9,0-1.1,0-2.2.2-3.3,0-.6.1-1.2.2-1.8-1.3,9.6.9,19.4,6.4,27.7-.5-.8-1-1.5-1.4-2.3-.9-1.6-1.7-3.2-2.4-4.8Z"/>
    <path class="cls-1" d="M324.6,171.7l-10.6,2.9h0c-.2,1-.6,1.9-1.3,2.6-.2.2-.5.5-.8.7-.9.7-2,1-3.1,1-1.6,0-3.3-.8-4.3-2.2l-1.6-2.1h-6.9l-7,2.3h-.1c-.3.4-.5.7-.8,1l-8.3,6.1s0,0,0,0c-.9.7-2,1-3.1,1h-12c-3.5,3.2-4.3,8.5-2,12.6l1.4,2.4,14.3-4.3c1.9,2.1,2.9,4.9,2.9,7.7,0,3.3-1.4,6.5-3.9,8.7l-4.1,3.7-29.6,9.9-18-11.9c-4.8-3.2-10.4-4.9-16.2-4.9s-3.4.2-5.1.5l-24.8,4.4-1.3.2-9.2,1.8,9.3-1.8c-6.6,17.6-10.3,36.6-10.3,56.5s2,28.5,5.6,41.9c-5.7,0-11.2-2.2-15.5-5.9,2.4,2.1,5.1,3.7,8,4.7,3.8,1.3,7.9,1.7,12,.9l5.5-1,10-15.1c4-5.9,10.6-9.5,17.8-9.5h62.5c7.1,0,13.8-3.6,17.7-9.5l.6-.9c2.3-3.4,6.4-5.2,10.4-4.6l23,3.4-40.4-52.4,9.7,3.2c4.1,1.4,7.7,4,10.3,7.4l24.7,32.9c1.8,2.4,5.3,2.8,7.6,1l15.3-12.3c4.8-3.5,7.6-9.1,7.6-15h0v-14.5c0-.9-.4-1.7-1.1-2.2-.7-.5-1.6-.6-2.4-.4l-5.9,2c-2.2.7-4.5.5-6.4-.6-2-1.1-3.4-3-3.9-5.2l-2.4-10.7,33.2,10.5-3.4-12.7c-1.8-6.7-1.7-13.8.3-20.4l5-16.7h0c-1.1-2-2.2-4-3.3-5.9-.2-.4-.4-.8-.7-1.1-1.5-2.5-3.1-5-4.7-7.4-.1-.2-.3-.4-.4-.6-1.7-2.6-3.6-5.1-5.5-7.6h0c-2.5-3.3-5.2-6.5-7.9-9.6h0s-13.3,24.4-13.3,24.4c-2.8,5.1-7.5,8.8-13.1,10.3Z"/>
    <path class="cls-1" d="M156,304.5c.2.2.3.4.5.5-.2-.2-.3-.4-.5-.5Z"/>
    <path class="cls-1" d="M155,303.3c.1.2.2.3.4.5-.1-.2-.2-.3-.4-.5Z"/>
    <path class="cls-1" d="M157.1,305.6c.2.2.4.4.6.6-.2-.2-.4-.4-.6-.6Z"/>
    <path class="cls-1" d="M143.3,273.5c0-1.1,0-2.2.2-3.3-.1,1.1-.2,2.2-.2,3.3Z"/>
    <path class="cls-1" d="M144.9,262.7c0,.1,0,.2,0,.3,0,0,0,0,0,0,0,0,0,0,0,0,0-.1,0-.2.1-.4Z"/>
    <path class="cls-1" d="M143.4,276.4c0,1.5.3,3.1.6,4.6-.3-1.5-.5-3.1-.6-4.6Z"/>
    <path class="cls-1" d="M144.2,282c.5,2.4,1.2,4.8,2.1,7.1-.9-2.3-1.6-4.7-2.1-7.1Z"/>
    <path class="cls-1" d="M146.3,289c.7,1.7,1.5,3.3,2.4,4.8-.9-1.6-1.7-3.2-2.4-4.8Z"/>
    <path class="cls-4" d="M173.6,312.5c-3.6-13.3-5.6-27.4-5.6-41.9s3.7-38.9,10.3-56.5l-9.3,1.8c-7.9,2.4-13.3,9.8-13.2,18.3v5.5c.1,0-8.1,15.8-8.1,15.8-.4.7-.7,1.5-1,2.2,0,0,0,.2-.1.2-.7,1.5-1.2,3.1-1.7,4.7,0,.1,0,.2-.1.4-.2.7-.3,1.3-.5,2,0,.2-.1.4-.1.6,0,.4-.1.8-.2,1.2,0,.5-.2.9-.2,1.4,0,0,0,.2,0,.2,0,.6-.1,1.2-.2,1.8-.1,1.1-.2,2.2-.2,3.3,0,1,0,1.9,0,2.9,0,1.5.3,3.1.6,4.6,0,.3.1.7.2,1,.5,2.4,1.2,4.8,2.1,7.1.7,1.7,1.5,3.3,2.4,4.8.5.8.9,1.6,1.4,2.3l3.9,5.8c.3.5.6.9,1,1.3.1.2.2.3.4.5.2.3.4.5.7.8.2.2.3.4.5.5.2.2.4.4.6.6.2.2.4.4.6.6.1.1.3.2.4.4,4.3,3.7,9.8,5.8,15.5,5.9Z"/>
    <path class="cls-6" d="M173.6,312.6c-2.5,0-5-.5-7.4-1.3-2.9-1-5.7-2.6-8-4.7-.1-.1-.3-.2-.4-.4-.2-.2-.4-.4-.6-.6-.2-.2-.4-.4-.6-.6-.2-.2-.3-.4-.5-.5-.2-.3-.4-.5-.7-.8-.1-.2-.2-.3-.4-.5-.3-.4-.7-.9-1-1.3l-3.9-5.8c-5.6-8.3-7.7-18.2-6.4-27.7,0,0,0-.2,0-.2,0-.5.2-.9.2-1.4,0-.4.1-.8.2-1.2,0-.2.1-.4.1-.6.2-.7.3-1.3.5-2,0,0,0,0,0,0,0,0,0,0,0,0,0-.1,0-.2,0-.3.5-1.6,1-3.2,1.7-4.7,0,0,0-.2.1-.2.3-.7.7-1.5,1-2.2l8.2-15.8v-5.5c-.3-8.5,5.1-15.8,13-18.3l-7.2-2c-5.5-1.5-9.4-6.4-9.7-12.1l-.4-7.1c-.4-7.1,4.8-13.2,11.9-14l7.1-.8v-12.6c0-.8.4-1.6,1.1-2.1l21.2-16c1.4-1.1,2.6-2.4,3.5-4l3.7-6.4-23.7,4.7c-.8.1-1.6,0-2.2-.6-.6-.5-1-1.3-1-2.1v-7.3c0-7.3,3.3-14.1,8.9-18.7l33.4-26.9c.9-.7,2-.8,3-.2l23.4,13.5c.6.4,1.3.4,2.1.3.7-.2,1.3-.7,1.6-1.3l8.9-14.5h0c24.2,3.4,46.7,12.2,66.1,25.2,0,0,0,0,0,0-11.1-7.4-23.1-13.5-35.9-17.9,0,0,0,0-.1,0-.9-.3-1.7-.6-2.6-.9-.1,0-.3,0-.4-.1-2.5-.8-5-1.6-7.5-2.2-.3,0-.7-.2-1-.3-.7-.2-1.4-.4-2.1-.5-.4-.1-.9-.2-1.3-.3-1-.2-2-.5-3.1-.7-.6-.1-1.3-.3-1.9-.4-.6-.1-1.1-.2-1.7-.3-.6-.1-1.2-.2-1.8-.3-.5-.1-1.1-.2-1.6-.3-.7-.1-1.5-.2-2.2-.4-.4,0-.8-.1-1.3-.2-1.1-.2-2.2-.3-3.3-.5-.4,0-.9-.1-1.3-.2-.8,0-1.6-.2-2.4-.3-.4,0-.9,0-1.3-.1-1,0-2-.2-3.1-.3-.2,0-.4,0-.5,0-1.2,0-2.4-.2-3.6-.2-.4,0-.7,0-1.1,0-.9,0-1.8,0-2.7-.1-.4,0-.7,0-1.1,0-1.2,0-2.5,0-3.7,0-88.4,0-160,71.6-160,160s71.6,160,160,160,4.9,0,7.3-.2c-31.8-21.2-55.5-53.4-65.7-91.2ZM147.5,142.6c1.5-2.5,4.8-3.3,7.3-1.8l8.5,5.2c1.9,1.2,2.9,3.5,2.4,5.7l-3.8,17c-.6,2.5-2.8,4.2-5.2,4.2s-.8,0-1.2-.1c-2.9-.6-4.7-3.5-4.1-6.4l2.9-13.3-5.3-3.2c-2.5-1.5-3.3-4.8-1.8-7.3Z"/>
  </g>
  <g>
    <path class="cls-3" d="M231.8,28h-1.9"/>
    <path class="cls-5" d="M57.4,103.5c1.5,1.3,3.4,1.9,5.2,1.9s4.5-1,6.1-2.8c2.9-3.3,2.5-8.4-.8-11.3-3.4-2.9-8.4-2.6-11.3.8-3,3.4-2.6,8.4.8,11.4Z"/>
    <path class="cls-5" d="M39.3,358.6c-3.7,2.4-4.8,7.4-2.4,11,1.5,2.4,4.2,3.7,6.7,3.7s3-.4,4.4-1.3c3.7-2.4,4.7-7.4,2.4-11-2.5-3.8-7.4-4.8-11.1-2.4Z"/>
    <path class="cls-5" d="M57.6,384.8c-3.4,2.9-3.7,7.9-.8,11.3,1.5,1.8,3.8,2.7,6,2.7s3.8-.6,5.3-1.9c3.3-2.9,3.7-8,.8-11.3-2.9-3.4-8-3.7-11.3-.8Z"/>
    <path class="cls-5" d="M90.6,407.4h0c-3.4-2.9-8.4-2.6-11.4.8-2.9,3.4-2.5,8.4.8,11.3,1.5,1.4,3.4,2,5.3,2s4.5-1,6.1-2.8c2.9-3.4,2.5-8.4-.9-11.3Z"/>
    <path class="cls-5" d="M115.4,425.8c-3.7-2.4-8.6-1.3-11,2.4-2.4,3.8-1.3,8.7,2.4,11,1.4.9,2.8,1.3,4.3,1.3,2.6,0,5.2-1.3,6.7-3.7,2.4-3.7,1.4-8.6-2.4-11Z"/>
    <path class="cls-5" d="M8,252.2c4.4,0,8-3.6,8-8s-3.6-8-8-8-8,3.5-8,8,3.6,8,8,8Z"/>
    <path class="cls-5" d="M35.5,333.9c-1.8-4-6.6-5.8-10.6-3.9-4,1.8-5.8,6.6-3.9,10.6,1.4,3,4.2,4.7,7.3,4.7s2.2-.2,3.4-.8c4-1.8,5.8-6.6,3.9-10.6Z"/>
    <path class="cls-5" d="M24.7,305c-1.2-4.2-5.7-6.6-9.9-5.4-4.2,1.2-6.6,5.7-5.4,9.9,1,3.4,4.2,5.8,7.7,5.8s1.5-.2,2.2-.4c4.2-1.2,6.7-5.7,5.4-9.9Z"/>
    <path class="cls-5" d="M293,451.3c-4.2,1.2-6.6,5.7-5.4,9.9,1,3.4,4.2,5.7,7.7,5.7s1.5,0,2.2-.3c4.2-1.2,6.6-5.7,5.4-9.9-1.3-4.2-5.7-6.6-10-5.4Z"/>
    <path class="cls-5" d="M263,457.8c-4.4.6-7.4,4.6-6.8,9,.6,4,4,6.8,7.9,6.8s.8,0,1.2,0h0c4.4-.6,7.4-4.6,6.8-9-.6-4.3-4.6-7.4-9-6.7Z"/>
    <path class="cls-5" d="M321.9,440.5c-4,1.8-5.8,6.6-3.9,10.6,1.3,3,4.2,4.6,7.3,4.6s2.2-.2,3.3-.7c4-1.8,5.8-6.6,3.9-10.6-1.8-4.1-6.6-5.8-10.6-3.9Z"/>
    <path class="cls-5" d="M9.1,220.2c.4,0,.7,0,1.1,0,3.9,0,7.4-2.9,7.9-6.9.6-4.4-2.5-8.4-6.8-9-4.4-.6-8.5,2.4-9,6.8-.6,4.4,2.4,8.4,6.8,9Z"/>
    <path class="cls-5" d="M349,425.6c-3.8,2.4-4.8,7.4-2.4,11.1,1.5,2.3,4.1,3.6,6.7,3.6s3-.4,4.3-1.3c3.8-2.4,4.8-7.3,2.4-11-2.4-3.7-7.4-4.8-11-2.4Z"/>
    <path class="cls-5" d="M201.4,457.8c-4.4-.6-8.4,2.4-9,6.8-.6,4.4,2.4,8.4,6.8,9,.4,0,.8,0,1.2,0,3.8,0,7.3-2.9,7.8-6.9.6-4.4-2.4-8.4-6.8-9Z"/>
    <path class="cls-5" d="M171.4,451.4c-4.2-1.2-8.7,1.2-9.9,5.4-1.3,4.2,1.1,8.7,5.4,9.9h0c.7.2,1.4.3,2.2.3,3.5,0,6.7-2.2,7.8-5.8,1.2-4.2-1.3-8.7-5.4-9.9Z"/>
    <path class="cls-5" d="M232.2,460c-4.5,0-8,3.6-8,8s3.5,8,8,8,8-3.6,8-8-3.6-8-8-8Z"/>
    <path class="cls-5" d="M142.4,440.6c-4-1.8-8.7,0-10.6,3.9-1.8,4,0,8.8,3.9,10.6,1.1.5,2.2.7,3.4.7,3,0,5.9-1.8,7.3-4.7,1.8-4,0-8.7-4-10.6Z"/>
    <path class="cls-5" d="M321.6,47.4c1,.5,2.2.7,3.3.7,3,0,5.9-1.7,7.3-4.6,1.8-4,0-8.8-3.9-10.6-4-1.8-8.8,0-10.6,4-1.8,4,0,8.7,4,10.6Z"/>
    <path class="cls-5" d="M373.6,407.1c-3.4,2.9-3.8,7.9-.8,11.3,1.6,1.8,3.8,2.7,6,2.7s3.8-.6,5.3-1.9c3.4-2.9,3.7-8,.8-11.3-3-3.4-8-3.7-11.3-.8Z"/>
    <path class="cls-5" d="M348.6,62.2c1.4.9,2.9,1.3,4.3,1.3,2.6,0,5.2-1.3,6.7-3.7,2.4-3.8,1.4-8.6-2.4-11-3.7-2.4-8.6-1.4-11,2.4-2.4,3.7-1.3,8.6,2.4,11Z"/>
    <path class="cls-5" d="M292.7,36.6c.7.2,1.4.3,2.2.3,3.5,0,6.7-2.2,7.8-5.8,1.2-4.2-1.2-8.7-5.4-9.9-4.2-1.2-8.7,1.2-9.9,5.4-1.3,4.2,1.2,8.7,5.4,9.9Z"/>
    <path class="cls-5" d="M262.6,30.2c.4,0,.8,0,1.1,0,3.9,0,7.4-2.9,7.9-6.9.6-4.4-2.4-8.4-6.8-9-4.4-.6-8.4,2.4-9,6.8-.6,4.3,2.4,8.4,6.8,9Z"/>
    <path class="cls-5" d="M231.8,28h0c4.4,0,8-3.6,8-8,0-4.4-3.6-8-8.1-8s-8,3.6-8,8,3.6,8,8,8Z"/>
    <path class="cls-5" d="M439.3,183c1,3.4,4.2,5.8,7.6,5.8s1.5-.2,2.3-.3c4.2-1.3,6.6-5.8,5.4-9.9h0c-1.3-4.3-5.8-6.7-10-5.4-4.2,1.2-6.6,5.7-5.4,9.9Z"/>
    <path class="cls-5" d="M446.2,214.7c1,3.4,4.2,5.8,7.6,5.8s1.5-.2,2.3-.3c4.2-1.3,6.6-5.8,5.4-9.9h0c-1.3-4.3-5.8-6.7-10-5.4-4.2,1.2-6.6,5.7-5.4,9.9Z"/>
    <path class="cls-5" d="M446,277.8c1,3.4,4.2,5.8,7.6,5.8s1.5-.2,2.3-.3c4.2-1.3,6.6-5.8,5.4-9.9h0c-1.3-4.3-5.8-6.7-10-5.4-4.2,1.2-6.6,5.7-5.4,9.9Z"/>
    <path class="cls-5" d="M450.1,246.6c1,3.4,4.2,5.8,7.6,5.8s1.5-.2,2.3-.3c4.2-1.3,6.6-5.8,5.4-9.9h0c-1.3-4.3-5.8-6.7-10-5.4-4.2,1.2-6.6,5.7-5.4,9.9Z"/>
    <path class="cls-5" d="M14.7,188.7c.7.2,1.5.3,2.2.3,3.4,0,6.6-2.2,7.7-5.8,1.2-4.2-1.2-8.6-5.4-9.9-4.2-1.2-8.7,1.3-9.9,5.5h0c-1.2,4.2,1.2,8.6,5.4,9.8Z"/>
    <path class="cls-5" d="M373.4,80.6c1.5,1.3,3.4,1.9,5.2,1.9s4.5-.9,6.1-2.7c2.9-3.4,2.5-8.4-.8-11.3-3.4-2.9-8.4-2.6-11.3.8-3,3.4-2.6,8.4.8,11.3Z"/>
    <path class="cls-5" d="M428.5,154.1c1.4,3,4.2,4.7,7.3,4.7s2.2-.2,3.3-.8c4-1.8,5.8-6.6,3.9-10.6h0c-1.8-4-6.6-5.8-10.6-3.9s-5.8,6.6-3.9,10.6Z"/>
    <path class="cls-5" d="M39.1,129.8c1.3.9,2.8,1.3,4.3,1.3,2.6,0,5.2-1.3,6.7-3.7,2.4-3.8,1.3-8.7-2.4-11-3.8-2.4-8.7-1.4-11,2.4-2.4,3.7-1.4,8.6,2.4,11Z"/>
    <path class="cls-5" d="M24.8,158.4c1,.5,2.2.7,3.3.7,3,0,5.9-1.8,7.3-4.7,1.8-4,0-8.7-3.9-10.6-4.1-1.8-8.8,0-10.6,3.9-1.8,4,0,8.8,4,10.6Z"/>
    <path class="cls-5" d="M199.9,30.2c.4,0,.7,0,1.1,0,4.4-.6,7.4-4.6,6.8-9-.6-4.4-4.7-7.4-9-6.8-4.4.6-7.4,4.7-6.8,9,.6,4,4,6.9,7.9,6.9Z"/>
    <path class="cls-5" d="M85.2,82.8c1.8,0,3.7-.6,5.2-1.9,3.4-3,3.8-8,.8-11.4-2.9-3.3-7.9-3.7-11.3-.7-3.4,2.9-3.7,7.9-.8,11.3,1.6,1.8,3.8,2.7,6.1,2.7Z"/>
    <path class="cls-5" d="M168.7,37c.7,0,1.4,0,2.2-.3,4.2-1.3,6.6-5.7,5.4-9.9-1.2-4.2-5.7-6.6-9.9-5.4-4.2,1.3-6.6,5.7-5.4,10,1,3.4,4.2,5.7,7.7,5.7Z"/>
    <path class="cls-5" d="M110.7,63.6c1.5,0,3-.4,4.3-1.3,3.8-2.4,4.8-7.3,2.4-11-2.4-3.7-7.4-4.8-11-2.4-3.8,2.4-4.8,7.4-2.4,11.1,1.5,2.3,4.1,3.6,6.7,3.6Z"/>
    <path class="cls-5" d="M138.8,48.2c1,0,2.2-.2,3.3-.7,4-1.8,5.8-6.6,3.9-10.6-1.8-4.1-6.6-5.8-10.6-4-4.1,1.8-5.8,6.6-4,10.6,1.4,3,4.3,4.6,7.4,4.6Z"/>
    <path class="cls-5" d="M11.4,284c4.4-.6,7.4-4.6,6.8-9-.6-4.4-4.6-7.4-9-6.8-4.4.6-7.4,4.7-6.8,9,.6,4,4,6.9,7.9,6.9s.8,0,1.1,0Z"/>
    <path class="cls-5" d="M439.2,329.6c-4-1.8-8.7,0-10.6,3.9-1.8,4.1,0,8.8,3.9,10.6,1.1.5,2.2.7,3.4.7,3,0,5.9-1.8,7.3-4.7,1.8-4,0-8.7-4-10.6Z"/>
    <path class="cls-5" d="M424.9,358.2c-3.7-2.4-8.6-1.4-11,2.4-2.4,3.7-1.3,8.6,2.4,11,1.4.9,2.9,1.3,4.3,1.3,2.6,0,5.2-1.3,6.7-3.7,2.4-3.8,1.4-8.7-2.4-11Z"/>
    <path class="cls-5" d="M449.3,299.2c-4.2-1.2-8.6,1.2-9.9,5.4-1.3,4.2,1.2,8.7,5.4,9.9.7.2,1.5.3,2.2.3,3.4,0,6.6-2.2,7.7-5.8,1.2-4.2-1.2-8.6-5.4-9.9Z"/>
    <path class="cls-5" d="M401.2,105.2c1.8,0,3.7-.6,5.2-1.9,3.4-3,3.8-8,.8-11.3h0c-2.9-3.4-7.9-3.8-11.3-.9-3.3,3-3.7,8-.8,11.4,1.6,1.8,3.8,2.7,6.1,2.7Z"/>
    <path class="cls-5" d="M406.6,384.5c-3.4-2.9-8.4-2.5-11.3.8-2.9,3.4-2.5,8.4.8,11.3,1.5,1.4,3.4,2,5.3,2s4.5-1,6-2.8c3-3.4,2.6-8.4-.8-11.3Z"/>
    <path class="cls-5" d="M420.4,130.8c1.4,0,3-.5,4.3-1.4,3.7-2.3,4.8-7.3,2.4-11-2.4-3.7-7.4-4.7-11-2.3-3.8,2.3-4.8,7.3-2.4,11,1.5,2.3,4.1,3.7,6.7,3.7Z"/>
  </g>
  <g class="rotate">
    <path class="cls-1" d="M488,244c0-9.7-4.3-18.3-11.1-24.2.4.3.7.6,1.1,1-1.3-.2-2.6-.2-3.9-.2-17.7,0-32,14.3-32,32s3.8,17.4,10,23.2c-4.5-.5-8.6-2-12.3-4.2,1.9,1.1,3.9,2,6.1,2.8,3.2,1.1,6.6,1.6,10.1,1.6s3.9-.2,5.8-.5c14.9-2.7,26.2-15.8,26.2-31.5Z"/>
    <path class="cls-4" d="M452.1,275.8c-6.2-5.8-10-14.1-10-23.2,0-17.7,14.3-32,32-32s2.6,0,3.9.2c-.4-.3-.7-.7-1.1-1,0,0,0,0,0,0-.4-.3-.7-.6-1.1-.9,0,0,0,0,0,0-.4-.3-.7-.6-1.1-.8,0,0,0,0,0,0-.4-.3-.8-.5-1.1-.8,0,0,0,0-.1,0-.4-.2-.8-.5-1.1-.7,0,0-.1,0-.2,0-.4-.2-.7-.4-1.1-.6,0,0-.2,0-.2-.1-.4-.2-.7-.4-1.1-.5,0,0-.2,0-.3-.1-.4-.2-.7-.3-1.1-.5-.1,0-.2,0-.4-.1-.3-.1-.7-.3-1-.4-.1,0-.3,0-.4-.1-.3-.1-.7-.2-1-.3-.2,0-.3,0-.5-.1-.3,0-.6-.2-1-.3-.2,0-.4,0-.6-.1-.3,0-.6-.1-.9-.2-.2,0-.4,0-.6-.1,0,0,0,0,0,0-.3,0-.6-.1-.8-.1-.3,0-.5,0-.8-.1-.2,0-.5,0-.7,0-.3,0-.7,0-1,0-.2,0-.4,0-.6,0-.5,0-1.1,0-1.6,0-3.5,0-6.9.6-10.1,1.6-12.7,4.2-21.9,16.2-21.9,30.4s0,1.1,0,1.6c0,.2,0,.4,0,.5,0,.3,0,.7,0,1,0,.2,0,.4,0,.6,0,.3,0,.6.1.9,0,.2,0,.4.1.7,0,.3,0,.6.2.9,0,.2,0,.5.1.7,0,.3.1.5.2.8,0,.2.1.5.2.7,0,.3.1.5.2.8,0,.2.1.5.2.7,0,.2.2.5.3.7,0,.2.2.5.3.7,0,.2.2.5.3.7,0,.2.2.5.3.7,0,.2.2.4.3.7.1.2.2.5.3.7.1.2.2.4.3.6.1.2.2.5.4.7,0,.2.2.3.3.5.1.3.3.5.5.8,0,.1.1.2.2.3.7,1.1,1.5,2.2,2.3,3.2,0,0,0,0,0,0,.3.3.5.6.8.9,0,0,.1.1.2.2.3.3.5.6.8.8,0,0,.1.2.2.2.3.3.5.5.8.8,0,0,.2.1.2.2.3.3.6.5.8.8,0,0,.2.1.2.2.3.2.6.5.9.7,0,0,.1.1.2.2.3.2.6.5,1,.7,0,0,.1,0,.2.1.3.2.7.5,1,.7,0,0,0,0,.1,0,.4.2.7.5,1.1.7,0,0,0,0,0,0,3.7,2.2,7.9,3.6,12.3,4.2Z"/>
    <!-- <animate attributeName="transform" type="rotate" values="0 244 244;360 244 244" dur="1s" begin="0s" repeatCount="indefinite" /> -->
    <animateTransform attributeName="transform" dur="3s" begin="0s" repeatCount="indefinite" type="rotate"
      values="0 244 244;360 244 244" />
  </g>
</svg>