<?xml version="1.0" encoding="UTF-8"?>
<svg id="Layer_1" data-name="Layer 1" xmlns="http://www.w3.org/2000/svg" viewBox="0 0 1588.02 1239.62">
  <defs>
    <style>
      .cls-1 {
        fill: #fff;
        stroke-width: 0px;
      }
    </style>
  </defs>
  <g>
    <path class="cls-1" d="M966.7,638.58c-53.66,34.15-117.36,53.95-185.69,53.95-191.23,0-346.26-155.03-346.26-346.27,0-36.86,5.75-72.35,16.43-105.66,25.21,27.15,54.12,55.9,86.1,85.51-.55,6.65-.82,13.37-.82,20.16,0,135.06,109.5,244.57,244.56,244.57,28.44,0,55.73-4.86,81.12-13.78,36.86,23.51,72.01,44.17,104.58,61.54Z"/>
    <path class="cls-1" d="M1098.24,485.27c18.67-42.55,29.03-89.57,29.03-139.02C1127.27,155.03,972.24,0,781.01,0c-80.57,0-154.71,27.52-213.54,73.67C464.45,19.36,388.2-1.32,367.39,25.51c-20.81,26.84,18.2,95.51,96.39,181.74,23.25,25.64,49.97,52.83,79.61,80.92,49.4,46.85,106.92,96.23,170.07,145.2,63.14,48.96,125.28,92.38,182.95,128.56,34.58,21.71,67.55,40.8,98.14,56.93,103.02,54.3,179.27,74.99,200.08,48.15,20.81-26.84-18.2-95.51-96.39-181.74ZM993.95,467.77c-5.72,10.8-12.49,21.09-20.83,28.78-5.71,5.27-11.34,5.47-19.01,4.78-15.6-1.39-31.03-7.83-45.21-14.04-48.12-21.08-92.76-50.87-134.97-81.86-8.24-6.05-16.39-12.21-24.47-18.47-43.95-34.08-86.61-71.04-123.23-113.03-13.19-15.12-48.29-50.39-40.34-74.01,2.6-7.73,10.98-14.8,16.34-20.54,9.71-10.4,20.34-19.93,31.71-28.48,83.06-62.45,200.24-64.14,285.97-5.74,12.04,8.21,23.34,17.51,33.65,27.81,69.17,69.01,91.02,178.32,52.65,268.36-3.58,8.4-7.57,17.59-12.25,26.44Z"/>
  </g>
  <g>
    <path class="cls-1" d="M107.29,915.9c0,7.76-1.29,14.94-3.88,21.55-2.59,6.61-6.22,12.33-10.9,17.16s-10.32,8.6-16.91,11.31-13.88,4.06-21.88,4.06-15.31-1.35-21.92-4.06c-6.61-2.71-12.27-6.48-16.98-11.31-4.71-4.83-8.36-10.55-10.94-17.16-2.59-6.61-3.88-13.79-3.88-21.55s1.29-14.94,3.88-21.55c2.59-6.61,6.23-12.33,10.94-17.16,4.71-4.83,10.37-8.6,16.98-11.31,6.61-2.71,13.92-4.06,21.92-4.06s15.3,1.37,21.88,4.1,12.22,6.5,16.91,11.31,8.32,10.51,10.9,17.12c2.59,6.61,3.88,13.8,3.88,21.55ZM87.09,915.9c0-5.81-.77-11.01-2.31-15.62-1.54-4.61-3.75-8.53-6.62-11.75-2.88-3.22-6.38-5.68-10.5-7.39-4.12-1.71-8.77-2.56-13.94-2.56s-9.83.85-13.98,2.56c-4.15,1.71-7.67,4.17-10.58,7.39-2.9,3.22-5.14,7.14-6.7,11.75-1.56,4.61-2.34,9.82-2.34,15.62s.78,11.02,2.34,15.63c1.56,4.61,3.79,8.51,6.7,11.71,2.9,3.2,6.43,5.65,10.58,7.36,4.15,1.71,8.81,2.56,13.98,2.56s9.82-.85,13.94-2.56c4.12-1.71,7.62-4.16,10.5-7.36,2.88-3.2,5.09-7.1,6.62-11.71,1.54-4.61,2.31-9.82,2.31-15.63Z"/>
    <path class="cls-1" d="M121.78,968.82v-75.09h10.61c1.85,0,3.15.34,3.88,1.03.73.68,1.22,1.85,1.46,3.51l1.1,9.08c2.68-4.63,5.83-8.29,9.44-10.98,3.61-2.68,7.66-4.02,12.15-4.02,3.71,0,6.78.85,9.22,2.56l-2.34,13.54c-.15.88-.46,1.5-.95,1.87-.49.37-1.15.55-1.98.55-.73,0-1.73-.17-3-.51-1.27-.34-2.95-.51-5.05-.51-3.76,0-6.98,1.04-9.66,3.11-2.68,2.07-4.95,5.11-6.81,9.11v46.77h-18.08Z"/>
    <path class="cls-1" d="M181.8,968.82v-108.76h18.08v42.89c2.98-3.17,6.34-5.7,10.1-7.57,3.76-1.88,8.15-2.82,13.17-2.82,4.1,0,7.84.84,11.23,2.53,3.39,1.68,6.32,4.13,8.78,7.36,2.46,3.22,4.37,7.2,5.71,11.93,1.34,4.73,2.01,10.17,2.01,16.32,0,5.61-.76,10.81-2.27,15.59-1.51,4.78-3.67,8.93-6.48,12.44-2.81,3.51-6.2,6.26-10.17,8.23-3.98,1.98-8.43,2.96-13.36,2.96-2.29,0-4.39-.23-6.29-.7s-3.64-1.11-5.2-1.94c-1.56-.83-3.01-1.84-4.35-3.04-1.34-1.2-2.62-2.53-3.84-3.99l-.81,5.05c-.29,1.27-.79,2.17-1.5,2.71-.71.54-1.67.8-2.89.8h-11.93ZM216.93,906.61c-3.76,0-6.97.79-9.62,2.38-2.66,1.59-5.14,3.82-7.43,6.7v33.67c2.05,2.54,4.28,4.31,6.7,5.31,2.42,1,5.04,1.5,7.87,1.5s5.2-.51,7.39-1.54c2.2-1.02,4.06-2.59,5.6-4.68,1.54-2.1,2.72-4.74,3.55-7.94.83-3.2,1.24-6.96,1.24-11.31s-.35-8.11-1.06-11.16c-.71-3.05-1.72-5.53-3.04-7.43-1.32-1.9-2.92-3.29-4.79-4.17-1.88-.88-4.01-1.32-6.4-1.32Z"/>
    <path class="cls-1" d="M286.97,871.84c0,1.56-.32,3.03-.95,4.39-.63,1.37-1.48,2.56-2.52,3.59-1.05,1.02-2.28,1.84-3.7,2.45-1.42.61-2.93.92-4.54.92s-3.04-.3-4.43-.92c-1.39-.61-2.6-1.43-3.62-2.45-1.02-1.02-1.84-2.22-2.45-3.59-.61-1.37-.92-2.83-.92-4.39s.3-3.12.92-4.54c.61-1.42,1.43-2.63,2.45-3.66,1.02-1.02,2.23-1.84,3.62-2.45,1.39-.61,2.87-.92,4.43-.92s3.12.31,4.54.92c1.41.61,2.65,1.43,3.7,2.45,1.05,1.03,1.89,2.25,2.52,3.66.63,1.42.95,2.93.95,4.54ZM284.26,893.72v75.09h-18.08v-75.09h18.08Z"/>
    <path class="cls-1" d="M329.34,969.99c-6.49,0-11.49-1.84-15-5.53-3.51-3.68-5.27-8.77-5.27-15.26v-41.94h-7.61c-.98,0-1.82-.32-2.52-.95-.71-.63-1.06-1.58-1.06-2.85v-7.17l12.08-1.98,3.81-20.49c.19-.98.65-1.73,1.35-2.27.71-.54,1.6-.8,2.67-.8h9.37v23.64h19.76v12.88h-19.76v40.69c0,2.34.59,4.17,1.76,5.49s2.73,1.98,4.68,1.98c1.12,0,2.06-.13,2.82-.4.76-.27,1.41-.55,1.98-.84.56-.29,1.06-.57,1.5-.84.44-.27.88-.4,1.32-.4.54,0,.98.13,1.32.4.34.27.71.67,1.1,1.21l5.42,8.78c-2.63,2.2-5.66,3.86-9.08,4.98-3.42,1.12-6.95,1.68-10.61,1.68Z"/>
    <path class="cls-1" d="M457.35,862.99v15.66h-46.91v29.35h36.96v15.15h-36.96v29.93h46.91v15.74h-66.75v-105.83h66.75Z"/>
    <path class="cls-1" d="M473.38,968.82v-75.09h11.05c2.34,0,3.88,1.1,4.61,3.29l1.24,5.93c1.51-1.56,3.11-2.98,4.79-4.24s3.46-2.37,5.34-3.29c1.88-.93,3.89-1.63,6.04-2.12,2.15-.49,4.49-.73,7.03-.73,4.1,0,7.73.7,10.9,2.09,3.17,1.39,5.82,3.34,7.94,5.86,2.12,2.51,3.73,5.51,4.83,9,1.1,3.49,1.65,7.33,1.65,11.53v47.79h-18.08v-47.79c0-4.59-1.06-8.14-3.18-10.65-2.12-2.51-5.31-3.77-9.55-3.77-3.12,0-6.05.71-8.78,2.12-2.73,1.42-5.32,3.34-7.76,5.78v54.3h-18.08Z"/>
    <path class="cls-1" d="M582.57,892.41c3.22,0,6.25.33,9.08.99,2.83.66,5.42,1.62,7.76,2.89h21.59v6.73c0,1.12-.29,2-.88,2.63-.59.63-1.59,1.07-3,1.32l-6.73,1.24c.49,1.27.87,2.61,1.13,4.03.27,1.42.4,2.9.4,4.46,0,3.71-.74,7.06-2.23,10.06-1.49,3-3.54,5.55-6.15,7.65-2.61,2.1-5.71,3.72-9.29,4.87-3.59,1.15-7.48,1.72-11.67,1.72-2.83,0-5.59-.27-8.27-.8-2.34,1.43-3.51,3.02-3.51,4.79,0,1.52.7,2.64,2.09,3.36,1.39.71,3.22,1.22,5.49,1.51,2.27.29,4.84.44,7.72.44s5.83.12,8.86.37c3.02.25,5.98.67,8.86,1.29,2.88.61,5.45,1.58,7.72,2.9,2.27,1.32,4.1,3.12,5.49,5.4s2.09,5.2,2.09,8.77c0,3.33-.82,6.56-2.45,9.69-1.64,3.13-4,5.92-7.1,8.37-3.1,2.45-6.89,4.42-11.38,5.91-4.49,1.49-9.61,2.24-15.37,2.24s-10.66-.55-14.86-1.65c-4.2-1.1-7.67-2.56-10.43-4.39-2.76-1.83-4.82-3.94-6.18-6.33-1.37-2.39-2.05-4.88-2.05-7.46,0-3.51,1.07-6.47,3.22-8.86,2.15-2.39,5.12-4.29,8.93-5.71-1.85-1.02-3.34-2.39-4.46-4.1-1.12-1.71-1.68-3.93-1.68-6.66,0-1.12.19-2.28.59-3.48.39-1.19.99-2.38,1.79-3.55.8-1.17,1.82-2.28,3.04-3.33,1.22-1.05,2.66-1.99,4.32-2.82-3.81-2.05-6.79-4.78-8.97-8.2-2.17-3.42-3.26-7.42-3.26-12,0-3.71.74-7.06,2.23-10.06,1.49-3,3.56-5.56,6.22-7.68,2.66-2.12,5.81-3.74,9.44-4.87,3.63-1.12,7.6-1.68,11.89-1.68ZM602.41,971.97c0-1.49-.44-2.71-1.32-3.66-.88-.95-2.07-1.68-3.59-2.21-1.51-.52-3.28-.91-5.31-1.16-2.03-.25-4.17-.37-6.44-.37h-7.03c-2.42,0-4.75-.27-6.99-.8-2.05,1.12-3.7,2.45-4.94,3.99-1.24,1.54-1.87,3.31-1.87,5.31,0,1.32.33,2.55.99,3.7s1.71,2.13,3.15,2.96c1.44.83,3.3,1.47,5.6,1.94,2.29.46,5.1.7,8.42.7s6.27-.26,8.71-.79c2.44-.52,4.45-1.25,6.04-2.17,1.58-.92,2.74-2.02,3.48-3.29.73-1.27,1.1-2.65,1.1-4.15ZM582.57,929.44c2.24,0,4.2-.3,5.85-.92,1.66-.61,3.04-1.45,4.14-2.52s1.93-2.37,2.49-3.88c.56-1.51.84-3.17.84-4.98,0-3.71-1.11-6.65-3.33-8.82-2.22-2.17-5.55-3.26-9.99-3.26s-7.77,1.09-9.99,3.26c-2.22,2.17-3.33,5.11-3.33,8.82,0,1.76.28,3.39.84,4.9.56,1.51,1.39,2.82,2.49,3.92,1.1,1.1,2.49,1.95,4.17,2.56,1.68.61,3.62.92,5.82.92Z"/>
    <path class="cls-1" d="M654.3,871.84c0,1.56-.32,3.03-.95,4.39-.63,1.37-1.48,2.56-2.52,3.59-1.05,1.02-2.28,1.84-3.7,2.45-1.42.61-2.93.92-4.54.92s-3.04-.3-4.43-.92c-1.39-.61-2.6-1.43-3.62-2.45-1.02-1.02-1.84-2.22-2.45-3.59-.61-1.37-.92-2.83-.92-4.39s.3-3.12.92-4.54c.61-1.42,1.43-2.63,2.45-3.66,1.02-1.02,2.23-1.84,3.62-2.45,1.39-.61,2.87-.92,4.43-.92s3.12.31,4.54.92c1.41.61,2.65,1.43,3.7,2.45,1.05,1.03,1.89,2.25,2.52,3.66.63,1.42.95,2.93.95,4.54ZM651.59,893.72v75.09h-18.08v-75.09h18.08Z"/>
    <path class="cls-1" d="M672.01,968.82v-75.09h11.05c2.34,0,3.88,1.1,4.61,3.29l1.24,5.93c1.51-1.56,3.11-2.98,4.79-4.24s3.46-2.37,5.34-3.29c1.88-.93,3.89-1.63,6.04-2.12,2.15-.49,4.49-.73,7.03-.73,4.1,0,7.73.7,10.9,2.09,3.17,1.39,5.82,3.34,7.94,5.86,2.12,2.51,3.73,5.51,4.83,9,1.1,3.49,1.65,7.33,1.65,11.53v47.79h-18.08v-47.79c0-4.59-1.06-8.14-3.18-10.65-2.12-2.51-5.31-3.77-9.55-3.77-3.12,0-6.05.71-8.78,2.12-2.73,1.42-5.32,3.34-7.76,5.78v54.3h-18.08Z"/>
    <path class="cls-1" d="M786.25,892.55c4.73,0,9.09.76,13.06,2.27,3.98,1.51,7.4,3.72,10.28,6.62,2.88,2.9,5.12,6.47,6.73,10.69,1.61,4.22,2.42,9.04,2.42,14.45,0,1.37-.06,2.5-.18,3.4-.12.9-.34,1.61-.66,2.12-.32.51-.74.88-1.28,1.1-.54.22-1.22.33-2.05.33h-46.4c.54,7.71,2.61,13.37,6.22,16.98,3.61,3.61,8.39,5.42,14.34,5.42,2.93,0,5.45-.34,7.58-1.02,2.12-.68,3.98-1.44,5.56-2.27,1.58-.83,2.98-1.58,4.17-2.27,1.2-.68,2.35-1.02,3.48-1.02.73,0,1.37.15,1.9.44.54.29,1,.71,1.39,1.24l5.27,6.59c-2,2.34-4.25,4.31-6.73,5.89-2.49,1.59-5.09,2.85-7.79,3.81-2.71.95-5.46,1.62-8.27,2.01-2.81.39-5.53.58-8.16.58-5.22,0-10.08-.87-14.56-2.6-4.49-1.73-8.39-4.29-11.71-7.68-3.32-3.39-5.93-7.59-7.83-12.59-1.9-5-2.85-10.79-2.85-17.38,0-5.12.83-9.94,2.49-14.45,1.66-4.51,4.04-8.44,7.14-11.78,3.1-3.34,6.88-5.99,11.34-7.94,4.46-1.95,9.5-2.93,15.11-2.93ZM786.62,905.51c-5.27,0-9.39,1.49-12.37,4.46s-4.88,7.2-5.71,12.66h33.96c0-2.34-.32-4.55-.95-6.62-.63-2.07-1.61-3.89-2.93-5.45s-2.98-2.79-4.98-3.7c-2-.9-4.34-1.35-7.03-1.35Z"/>
    <path class="cls-1" d="M864.49,892.55c4.73,0,9.09.76,13.06,2.27,3.98,1.51,7.4,3.72,10.28,6.62,2.88,2.9,5.12,6.47,6.73,10.69,1.61,4.22,2.42,9.04,2.42,14.45,0,1.37-.06,2.5-.18,3.4-.12.9-.34,1.61-.66,2.12-.32.51-.74.88-1.28,1.1-.54.22-1.22.33-2.05.33h-46.4c.54,7.71,2.61,13.37,6.22,16.98,3.61,3.61,8.39,5.42,14.34,5.42,2.93,0,5.45-.34,7.58-1.02,2.12-.68,3.98-1.44,5.56-2.27,1.58-.83,2.98-1.58,4.17-2.27,1.2-.68,2.35-1.02,3.48-1.02.73,0,1.37.15,1.9.44.54.29,1,.71,1.39,1.24l5.27,6.59c-2,2.34-4.25,4.31-6.73,5.89-2.49,1.59-5.09,2.85-7.79,3.81-2.71.95-5.46,1.62-8.27,2.01-2.81.39-5.53.58-8.16.58-5.22,0-10.08-.87-14.56-2.6s-8.39-4.29-11.71-7.68c-3.32-3.39-5.93-7.59-7.83-12.59-1.9-5-2.85-10.79-2.85-17.38,0-5.12.83-9.94,2.49-14.45,1.66-4.51,4.04-8.44,7.14-11.78,3.1-3.34,6.88-5.99,11.34-7.94,4.46-1.95,9.5-2.93,15.11-2.93ZM864.86,905.51c-5.27,0-9.39,1.49-12.37,4.46s-4.88,7.2-5.71,12.66h33.96c0-2.34-.32-4.55-.95-6.62-.63-2.07-1.61-3.89-2.93-5.45s-2.98-2.79-4.98-3.7c-2-.9-4.34-1.35-7.03-1.35Z"/>
    <path class="cls-1" d="M911.7,968.82v-75.09h10.61c1.85,0,3.15.34,3.88,1.03.73.68,1.22,1.85,1.46,3.51l1.1,9.08c2.68-4.63,5.83-8.29,9.44-10.98,3.61-2.68,7.66-4.02,12.15-4.02,3.71,0,6.78.85,9.22,2.56l-2.34,13.54c-.15.88-.46,1.5-.95,1.87-.49.37-1.15.55-1.98.55-.73,0-1.73-.17-3-.51-1.27-.34-2.95-.51-5.05-.51-3.76,0-6.98,1.04-9.66,3.11-2.68,2.07-4.95,5.11-6.81,9.11v46.77h-18.08Z"/>
    <path class="cls-1" d="M993.45,871.84c0,1.56-.32,3.03-.95,4.39-.63,1.37-1.48,2.56-2.53,3.59-1.05,1.02-2.28,1.84-3.7,2.45-1.42.61-2.93.92-4.54.92s-3.04-.3-4.43-.92c-1.39-.61-2.6-1.43-3.62-2.45s-1.84-2.22-2.45-3.59c-.61-1.37-.91-2.83-.91-4.39s.3-3.12.91-4.54c.61-1.42,1.43-2.63,2.45-3.66,1.02-1.02,2.23-1.84,3.62-2.45,1.39-.61,2.87-.92,4.43-.92s3.12.31,4.54.92c1.42.61,2.65,1.43,3.7,2.45,1.05,1.03,1.89,2.25,2.53,3.66.63,1.42.95,2.93.95,4.54ZM990.74,893.72v75.09h-18.08v-75.09h18.08Z"/>
    <path class="cls-1" d="M1011.16,968.82v-75.09h11.05c2.34,0,3.88,1.1,4.61,3.29l1.24,5.93c1.51-1.56,3.11-2.98,4.79-4.24,1.68-1.27,3.46-2.37,5.34-3.29,1.88-.93,3.89-1.63,6.04-2.12,2.15-.49,4.49-.73,7.03-.73,4.1,0,7.73.7,10.91,2.09,3.17,1.39,5.82,3.34,7.94,5.86,2.12,2.51,3.73,5.51,4.83,9,1.1,3.49,1.65,7.33,1.65,11.53v47.79h-18.08v-47.79c0-4.59-1.06-8.14-3.18-10.65-2.12-2.51-5.31-3.77-9.55-3.77-3.12,0-6.05.71-8.78,2.12-2.73,1.42-5.32,3.34-7.76,5.78v54.3h-18.08Z"/>
    <path class="cls-1" d="M1120.35,892.41c3.22,0,6.25.33,9.08.99,2.83.66,5.42,1.62,7.76,2.89h21.59v6.73c0,1.12-.29,2-.88,2.63-.59.63-1.59,1.07-3,1.32l-6.73,1.24c.49,1.27.87,2.61,1.13,4.03.27,1.42.4,2.9.4,4.46,0,3.71-.74,7.06-2.23,10.06-1.49,3-3.54,5.55-6.15,7.65-2.61,2.1-5.71,3.72-9.29,4.87-3.59,1.15-7.48,1.72-11.67,1.72-2.83,0-5.59-.27-8.27-.8-2.34,1.43-3.51,3.02-3.51,4.79,0,1.52.7,2.64,2.09,3.36,1.39.71,3.22,1.22,5.49,1.51,2.27.29,4.84.44,7.72.44s5.83.12,8.86.37,5.98.67,8.86,1.29c2.88.61,5.45,1.58,7.72,2.9s4.1,3.12,5.49,5.4,2.09,5.2,2.09,8.77c0,3.33-.82,6.56-2.45,9.69s-4,5.92-7.1,8.37c-3.1,2.45-6.89,4.42-11.38,5.91-4.49,1.49-9.61,2.24-15.37,2.24s-10.66-.55-14.86-1.65c-4.2-1.1-7.67-2.56-10.43-4.39s-4.82-3.94-6.18-6.33c-1.37-2.39-2.05-4.88-2.05-7.46,0-3.51,1.07-6.47,3.22-8.86,2.15-2.39,5.12-4.29,8.93-5.71-1.85-1.02-3.34-2.39-4.46-4.1-1.12-1.71-1.68-3.93-1.68-6.66,0-1.12.19-2.28.58-3.48.39-1.19.99-2.38,1.79-3.55.81-1.17,1.82-2.28,3.04-3.33,1.22-1.05,2.66-1.99,4.32-2.82-3.81-2.05-6.79-4.78-8.96-8.2-2.17-3.42-3.26-7.42-3.26-12,0-3.71.74-7.06,2.23-10.06s3.56-5.56,6.22-7.68c2.66-2.12,5.81-3.74,9.44-4.87,3.63-1.12,7.6-1.68,11.89-1.68ZM1140.19,971.97c0-1.49-.44-2.71-1.32-3.66-.88-.95-2.08-1.68-3.59-2.21-1.51-.52-3.28-.91-5.31-1.16-2.03-.25-4.17-.37-6.44-.37h-7.03c-2.42,0-4.75-.27-6.99-.8-2.05,1.12-3.7,2.45-4.94,3.99s-1.87,3.31-1.87,5.31c0,1.32.33,2.55.99,3.7.66,1.15,1.71,2.13,3.15,2.96,1.44.83,3.3,1.47,5.6,1.94,2.29.46,5.1.7,8.42.7s6.27-.26,8.71-.79c2.44-.52,4.45-1.25,6.04-2.17,1.58-.92,2.74-2.02,3.48-3.29.73-1.27,1.1-2.65,1.1-4.15ZM1120.35,929.44c2.24,0,4.2-.3,5.85-.92,1.66-.61,3.04-1.45,4.14-2.52,1.1-1.07,1.93-2.37,2.49-3.88.56-1.51.84-3.17.84-4.98,0-3.71-1.11-6.65-3.33-8.82-2.22-2.17-5.55-3.26-9.99-3.26s-7.77,1.09-9.99,3.26c-2.22,2.17-3.33,5.11-3.33,8.82,0,1.76.28,3.39.84,4.9.56,1.51,1.39,2.82,2.49,3.92s2.49,1.95,4.17,2.56c1.68.61,3.62.92,5.82.92Z"/>
    <path class="cls-1" d="M1300.91,915.9c0,7.76-1.29,14.94-3.88,21.55-2.59,6.61-6.22,12.33-10.91,17.16-4.68,4.83-10.32,8.6-16.91,11.31s-13.88,4.06-21.88,4.06-15.31-1.35-21.92-4.06-12.27-6.48-16.98-11.31c-4.71-4.83-8.36-10.55-10.94-17.16-2.59-6.61-3.88-13.79-3.88-21.55s1.29-14.94,3.88-21.55c2.59-6.61,6.23-12.33,10.94-17.16,4.71-4.83,10.37-8.6,16.98-11.31s13.92-4.06,21.92-4.06,15.3,1.37,21.88,4.1,12.22,6.5,16.91,11.31c4.68,4.81,8.32,10.51,10.91,17.12,2.59,6.61,3.88,13.8,3.88,21.55ZM1280.71,915.9c0-5.81-.77-11.01-2.31-15.62-1.54-4.61-3.75-8.53-6.62-11.75-2.88-3.22-6.38-5.68-10.5-7.39-4.12-1.71-8.77-2.56-13.94-2.56s-9.83.85-13.98,2.56c-4.15,1.71-7.67,4.17-10.58,7.39-2.9,3.22-5.14,7.14-6.7,11.75-1.56,4.61-2.34,9.82-2.34,15.62s.78,11.02,2.34,15.63c1.56,4.61,3.79,8.51,6.7,11.71,2.9,3.2,6.43,5.65,10.58,7.36,4.15,1.71,8.81,2.56,13.98,2.56s9.82-.85,13.94-2.56c4.12-1.71,7.62-4.16,10.5-7.36,2.88-3.2,5.09-7.1,6.62-11.71,1.54-4.61,2.31-9.82,2.31-15.63Z"/>
    <path class="cls-1" d="M1318.62,968.82v-61.48l-6.51-1.02c-1.42-.24-2.55-.73-3.4-1.46-.85-.73-1.28-1.76-1.28-3.07v-7.39h11.2v-5.56c0-4.29.65-8.15,1.94-11.56,1.29-3.42,3.15-6.32,5.56-8.71s5.35-4.22,8.82-5.49c3.46-1.27,7.37-1.9,11.71-1.9,3.46,0,6.68.46,9.66,1.39l-.37,9.08c-.1,1.42-.76,2.29-1.98,2.63-1.22.34-2.63.51-4.25.51-2.15,0-4.06.23-5.75.7-1.68.46-3.11,1.27-4.28,2.42-1.17,1.15-2.06,2.66-2.67,4.54-.61,1.88-.92,4.21-.92,6.99v4.98h19.54v12.88h-18.96v61.55h-18.08Z"/>
    <path class="cls-1" d="M1369.92,968.82v-61.48l-6.51-1.02c-1.42-.24-2.55-.73-3.4-1.46-.85-.73-1.28-1.76-1.28-3.07v-7.39h11.2v-2.42c0-4.59.76-8.84,2.27-12.77,1.51-3.93,3.81-7.33,6.88-10.21,3.07-2.88,6.95-5.13,11.64-6.77,4.68-1.63,10.22-2.45,16.61-2.45,2.05,0,4.15.11,6.29.33,2.15.22,4,.57,5.56,1.06l-.58,9.37c-.1,1.12-.71,1.79-1.83,2.01-1.12.22-2.51.33-4.17.33-4.73,0-8.7.42-11.89,1.24-3.2.83-5.78,2.06-7.76,3.7-1.98,1.64-3.39,3.68-4.25,6.15-.85,2.46-1.28,5.33-1.28,8.6v1.83h46.55v74.43h-18.08v-61.55h-27.88v61.55h-18.08Z"/>
    <path class="cls-1" d="M1507.44,909.61c-.54.68-1.06,1.22-1.57,1.61-.51.39-1.26.59-2.23.59s-1.83-.28-2.71-.84c-.88-.56-1.93-1.2-3.15-1.9-1.22-.71-2.67-1.34-4.36-1.9-1.68-.56-3.77-.84-6.26-.84-3.17,0-5.95.57-8.34,1.72-2.39,1.15-4.38,2.79-5.96,4.94-1.59,2.15-2.77,4.75-3.55,7.79-.78,3.05-1.17,6.5-1.17,10.36s.43,7.56,1.28,10.69c.85,3.12,2.09,5.75,3.7,7.87,1.61,2.12,3.56,3.73,5.86,4.83,2.29,1.1,4.88,1.65,7.76,1.65s5.21-.35,6.99-1.06c1.78-.71,3.28-1.49,4.5-2.34,1.22-.85,2.28-1.63,3.18-2.34.9-.71,1.92-1.06,3.04-1.06,1.46,0,2.56.56,3.29,1.68l5.2,6.59c-2,2.34-4.17,4.31-6.51,5.89-2.34,1.59-4.77,2.85-7.28,3.81-2.51.95-5.11,1.62-7.79,2.01-2.68.39-5.34.58-7.98.58-4.64,0-9-.87-13.1-2.6s-7.67-4.26-10.72-7.58c-3.05-3.32-5.46-7.38-7.25-12.19-1.78-4.81-2.67-10.28-2.67-16.43,0-5.51.79-10.62,2.38-15.33,1.58-4.71,3.92-8.78,6.99-12.22,3.07-3.44,6.88-6.13,11.42-8.09,4.54-1.95,9.76-2.93,15.66-2.93s10.53.9,14.75,2.71c4.22,1.81,8.01,4.39,11.38,7.76l-4.76,6.59Z"/>
    <path class="cls-1" d="M1555.53,892.55c4.73,0,9.09.76,13.06,2.27,3.98,1.51,7.4,3.72,10.28,6.62,2.88,2.9,5.12,6.47,6.73,10.69,1.61,4.22,2.42,9.04,2.42,14.45,0,1.37-.06,2.5-.18,3.4-.12.9-.34,1.61-.66,2.12-.32.51-.74.88-1.28,1.1-.54.22-1.22.33-2.05.33h-46.4c.54,7.71,2.61,13.37,6.22,16.98,3.61,3.61,8.39,5.42,14.34,5.42,2.93,0,5.45-.34,7.58-1.02,2.12-.68,3.98-1.44,5.56-2.27,1.58-.83,2.98-1.58,4.17-2.27,1.2-.68,2.35-1.02,3.48-1.02.73,0,1.37.15,1.9.44.54.29,1,.71,1.39,1.24l5.27,6.59c-2,2.34-4.25,4.31-6.73,5.89-2.49,1.59-5.09,2.85-7.79,3.81-2.71.95-5.46,1.62-8.27,2.01-2.81.39-5.53.58-8.16.58-5.22,0-10.08-.87-14.56-2.6s-8.39-4.29-11.71-7.68c-3.32-3.39-5.93-7.59-7.83-12.59-1.9-5-2.85-10.79-2.85-17.38,0-5.12.83-9.94,2.49-14.45,1.66-4.51,4.04-8.44,7.14-11.78,3.1-3.34,6.88-5.99,11.34-7.94,4.46-1.95,9.5-2.93,15.11-2.93ZM1555.89,905.51c-5.27,0-9.39,1.49-12.37,4.46s-4.88,7.2-5.71,12.66h33.96c0-2.34-.32-4.55-.95-6.62-.63-2.07-1.61-3.89-2.93-5.45s-2.98-2.79-4.98-3.7c-2-.9-4.34-1.35-7.03-1.35Z"/>
  </g>
  <g>
    <path class="cls-1" d="M29.8,1202.74c-6.36-3.91-11-9.1-13.9-15.58-2.91-6.48-4.36-13.65-4.36-21.51,0-3.86.35-8.11,1.04-12.76.69-4.65,1.99-9.66,3.9-15.04l13.94,5.15c-1.38,4.48-2.37,8.65-2.97,12.51-.6,3.86-.89,7.29-.89,10.29,0,4.91.87,9.37,2.61,13.4,1.74,4.03,4.67,7.23,8.79,9.61,4.12,2.38,9.78,3.57,16.97,3.57s13.45-.83,18.33-2.5c4.88-1.67,8.54-3.62,10.97-5.86,2.43-2.24,3.65-4.15,3.65-5.72,0-2.05-.91-3.63-2.72-4.75-1.81-1.12-4.72-1.68-8.72-1.68h-10.86c-1.43,0-2.37-.45-2.82-1.36-.45-.91-.89-2.12-1.32-3.65l-2.43-8.65c-.19-.76-.19-1.4,0-1.93.19-.52.83-.79,1.93-.79h41.17v16.37h-1.36c.52,1.19.86,2.26,1,3.22.14.95.21,1.98.21,3.07,0,3.67-.99,7.31-2.97,10.93-1.98,3.62-4.94,6.9-8.9,9.83-3.96,2.93-8.86,5.28-14.72,7.04-5.86,1.76-12.68,2.64-20.44,2.64-10.39,0-18.76-1.96-25.12-5.86ZM55.92,1228.54l-11.01,11.08-10.94-11.08,10.94-10.94,11.01,10.94ZM79.79,1228.54l-11.01,11.08-10.86-11.08,10.86-10.94,11.01,10.94Z"/>
    <path class="cls-1" d="M142.47,1155.42v16.37h-43.24v-16.37h43.24Z"/>
    <path class="cls-1" d="M176.99,1169.11c-3.1-1.79-5.6-4.25-7.5-7.4-2.43,3.19-5.41,5.67-8.93,7.43-3.53,1.76-8.31,2.64-14.37,2.64h-6.58v-16.37h6.72c3.81,0,6.91-.38,9.29-1.14,2.38-.76,4.13-2.13,5.25-4.11,1.12-1.98,1.68-4.82,1.68-8.54,0-.81-.02-1.88-.07-3.22-.05-1.33-.14-2.86-.29-4.57-.14-1.71-.29-3.53-.43-5.43l14.58-1.79,1.29,16.87c.24,3.62,1.33,6.52,3.29,8.68,1.95,2.17,4.84,3.25,8.65,3.25,4.57,0,7.66-1.12,9.26-3.36,1.6-2.24,2.39-5.72,2.39-10.43,0-.76-.02-1.82-.07-3.18-.05-1.36-.14-2.89-.29-4.61-.14-1.71-.29-3.53-.43-5.43l14.58-1.79,1.29,16.87c.19,3.43,1.07,6.28,2.64,8.54,1.57,2.26,4.17,3.39,7.79,3.39,2.33,0,4.16-.61,5.47-1.82,1.31-1.21,2.25-2.85,2.82-4.9.57-2.05.86-4.26.86-6.65,0-2.53-.2-5.1-.61-7.72-.41-2.62-.86-5.06-1.36-7.33-.5-2.26-.94-4.04-1.32-5.32l15.01-4.07c.9,3.48,1.64,7.15,2.22,11.01s.86,7.72.86,11.58c0,5.48-.75,10.63-2.25,15.44-1.5,4.81-3.98,8.7-7.43,11.65-3.46,2.96-8.16,4.46-14.12,4.5-4.48,0-8.15-.92-11.01-2.75-2.86-1.83-5.22-4.3-7.08-7.4-2.57,3.29-5.46,5.8-8.65,7.54-3.19,1.74-6.77,2.61-10.72,2.61-5.19,0-9.34-.89-12.44-2.68Z"/>
    <path class="cls-1" d="M303.96,1138.88c-.55-1.98-1.16-3.73-1.82-5.25l-13.29-29.73,13.72-6.58,16.87,39.38c1.86,4.34,3.5,7.89,4.93,10.65,1.43,2.76,2.91,4.8,4.43,6.11,1.52,1.31,3.36,1.97,5.5,1.97h3v16.37h-3c-3.67,0-6.74-.45-9.22-1.36-2.48-.9-4.62-2.23-6.43-3.97-1.81-1.74-3.57-3.85-5.29-6.33-2.29,2.57-4.94,4.72-7.97,6.43-3.03,1.72-6.48,3-10.36,3.86-3.88.86-8.33,1.29-13.33,1.29-3.67,0-6.9-.15-9.68-.46-2.79-.31-5.52-.77-8.18-1.39v-16.3c2.91.67,5.79,1.17,8.65,1.5,2.86.33,5.57.5,8.15.5,4.81,0,9.02-.4,12.61-1.21,3.6-.81,6.42-2.1,8.47-3.86,2.05-1.76,3.07-4.05,3.07-6.86,0-1.19-.27-2.78-.82-4.75Z"/>
    <path class="cls-1" d="M370.68,1124.76l1.29,18.37c.14,2.76.71,5.06,1.72,6.9,1,1.83,2.44,3.19,4.32,4.07,1.88.88,4.25,1.32,7.11,1.32h1.5v16.37h-1.64c-3.38,0-6.36-.42-8.93-1.25-2.57-.83-4.8-2-6.68-3.5-1.88-1.5-3.51-3.32-4.9-5.47-2.67,3.38-6.06,5.93-10.18,7.65-4.12,1.72-8.45,2.57-12.97,2.57h-6.86v-16.37h6.86c5.72,0,9.73-1.15,12.04-3.47,2.31-2.31,3.47-6.09,3.47-11.33,0-2.48-.06-4.88-.18-7.22-.12-2.33-.27-4.62-.46-6.86l14.51-1.79ZM370.04,1101.39l-11.44,11.44-11.44-11.44,11.44-11.44,11.44,11.44Z"/>
    <path class="cls-1" d="M383.76,1155.42h13.51v-1.43c0-4.86.48-9.89,1.43-15.08.95-5.19,2.48-10.03,4.57-14.51,2.1-4.48,4.86-8.1,8.29-10.86,3.43-2.76,7.62-4.15,12.58-4.15,4.29,0,7.96,1.03,11.01,3.07,3.05,2.05,5.4,4.87,7.04,8.47,1.64,3.6,2.47,7.71,2.47,12.33s-.86,8.8-2.57,13.12c-1.72,4.31-4.06,8.28-7.04,11.9-2.98,3.62-6.36,6.62-10.15,9-3.79,2.38-7.78,3.84-11.97,4.36.57,2.14,1.48,4.32,2.72,6.54,1.24,2.22,2.73,4.35,4.47,6.4,1.74,2.05,3.66,3.81,5.75,5.29.48-5.1,1.55-9.76,3.22-13.97,1.67-4.22,3.85-7.85,6.54-10.9,2.69-3.05,5.86-5.41,9.51-7.08,3.65-1.67,7.66-2.5,12.04-2.5h2.36v16.37h-2.5c-3.15,0-5.85.4-8.11,1.21-2.26.81-4.11,2.07-5.54,3.79-1.43,1.72-2.49,3.92-3.18,6.61-.69,2.69-1.04,5.9-1.04,9.61,0,1.1.02,2.26.07,3.5.05,1.24.12,2.45.21,3.64l-10.44,10.01c-5.05-2.53-9.68-5.78-13.9-9.76-4.22-3.98-7.77-8.42-10.65-13.33-2.88-4.91-4.87-10.01-5.97-15.29h-14.72v-16.37ZM418.46,1127.66c-1.5,1.64-2.75,3.84-3.75,6.58-1,2.74-1.75,5.83-2.25,9.26s-.75,6.93-.75,10.51v1.5c3.53-.14,6.75-1.2,9.68-3.18,2.93-1.98,5.26-4.58,7-7.83,1.74-3.24,2.61-6.74,2.61-10.51,0-2.81-.67-4.98-2-6.5-1.33-1.52-3.1-2.29-5.29-2.29-2,0-3.75.82-5.25,2.47Z"/>
    <path class="cls-1" d="M462.38,1155.42c5.43,0,9.01-1.42,10.72-4.25,1.72-2.83,2.57-6.66,2.57-11.47v-67.11h15.22v67.83c0,10.34-2.26,18.15-6.79,23.44-4.53,5.29-11.79,7.93-21.8,7.93h-5.65v-16.37h5.72Z"/>
    <path class="cls-1" d="M526.99,1171.72h-15.22v-99.13h15.22v99.13Z"/>
    <path class="cls-1" d="M697.67,1124.76l1.36,18.37c.24,4.15,1.38,7.23,3.43,9.26,2.05,2.03,5.22,3.04,9.51,3.04h1.72v16.37h-1.72c-5.38,0-9.85-1.01-13.4-3.04-3.55-2.03-6.47-5.06-8.76-9.11-4.1,4.34-9.24,7.45-15.44,9.33-6.19,1.88-14.56,2.82-25.09,2.82h-11.94c-8.67,0-16.43-.55-23.26-1.64-6.84-1.1-12.64-2.93-17.4-5.5-4.77-2.57-8.4-6.03-10.9-10.36-2.5-4.33-3.75-9.79-3.75-16.37,0-3.72.42-7.35,1.25-10.9.83-3.55,1.89-6.9,3.18-10.04l13.72,5.15c-.76,2.14-1.47,4.54-2.11,7.18-.64,2.64-.96,5.16-.96,7.54,0,3.91.94,7.08,2.82,9.51,1.88,2.43,4.57,4.3,8.08,5.61,3.5,1.31,7.72,2.22,12.65,2.72,4.93.5,10.49.75,16.69.75h11.94c7.29,0,13.51-.4,18.65-1.21,5.15-.81,9.09-2.29,11.83-4.43,2.74-2.14,4.11-5.22,4.11-9.22,0-2.14-.07-4.49-.21-7.04-.14-2.55-.31-4.87-.5-6.97l14.51-1.79ZM640.63,1108.97l-11.01,11.08-10.94-11.08,10.94-10.93,11.01,10.93ZM664.51,1108.97l-11.01,11.08-10.86-11.08,10.86-10.93,11.01,10.93Z"/>
    <path class="cls-1" d="M754.06,1155.42v16.37h-43.24v-16.37h43.24Z"/>
    <path class="cls-1" d="M794.44,1155.42v16.37h-43.24v-16.37h43.24Z"/>
    <path class="cls-1" d="M834.82,1155.42v16.37h-43.24v-16.37h43.24Z"/>
    <path class="cls-1" d="M875.21,1155.42v16.37h-43.24v-16.37h43.24Z"/>
    <path class="cls-1" d="M915.59,1155.42v16.37h-43.24v-16.37h43.24Z"/>
    <path class="cls-1" d="M925.59,1193.09l-11.01,11.08-10.94-11.08,10.94-10.94,11.01,10.94ZM918.3,1155.42v16.37h-5.72v-16.37h5.72ZM952.75,1124.76l1.29,18.37c.14,2.76.71,5.06,1.71,6.9,1,1.83,2.44,3.19,4.32,4.07,1.88.88,4.25,1.32,7.11,1.32h1.5v16.37h-1.64c-3.38,0-6.36-.42-8.93-1.25-2.57-.83-4.8-2-6.68-3.5-1.88-1.5-3.51-3.32-4.9-5.47-2.67,3.38-6.06,5.93-10.18,7.65-4.12,1.72-8.45,2.57-12.97,2.57h-6.86v-16.37h6.86c5.72,0,9.73-1.15,12.04-3.47,2.31-2.31,3.47-6.09,3.47-11.33,0-2.48-.06-4.88-.18-7.22-.12-2.33-.27-4.62-.46-6.86l14.51-1.79ZM949.47,1193.09l-11.01,11.08-10.86-11.08,10.86-10.94,11.01,10.94Z"/>
    <path class="cls-1" d="M969.19,1155.42v16.37h-3.43v-16.37h3.43ZM967.26,1171.79v-16.37h11.51c4.24,0,7.13-1.26,8.68-3.79,1.55-2.52,2.32-5.74,2.32-9.65,0-3.19-.33-6.61-1-10.26-.67-3.64-1.36-7.3-2.07-10.97l15.15-3.86c.86,4.1,1.54,8.15,2.04,12.15.5,4,.75,7.81.75,11.44,0,6-.81,11.36-2.43,16.08-1.62,4.72-4.31,8.43-8.08,11.15s-8.89,4.07-15.37,4.07h-11.51ZM991.92,1193.09l-11.44,11.44-11.44-11.44,11.44-11.44,11.44,11.44Z"/>
    <path class="cls-1" d="M1005.5,1195.74c7.39-1.62,13.47-3.92,18.26-6.9,4.79-2.98,8.35-6.69,10.68-11.15,2.33-4.46,3.5-9.73,3.5-15.83,0-4.19-.55-8.72-1.64-13.58-1.1-4.86-2.43-9.62-4-14.29l15.08-5c1.76,5,3.11,10.15,4.04,15.44.93,5.29,1.39,10.41,1.39,15.37,0,8.86-1.6,16.77-4.79,23.73-3.19,6.96-7.89,12.75-14.08,17.37-6.19,4.62-13.84,7.81-22.94,9.58l-5.5-14.72Z"/>
    <path class="cls-1" d="M1113.85,1183.69c-3.72,7.08-9.14,12.8-16.26,17.19-7.12,4.38-15.78,7.55-25.98,9.51l-5.5-14.72c6.96-1.38,13.07-3.23,18.33-5.54,5.26-2.31,9.53-5.12,12.79-8.43,3.26-3.31,5.37-7.09,6.33-11.33-1.57.43-3.31.81-5.22,1.14-1.91.33-3.6.5-5.07.5-8.77,0-15.52-1.92-20.26-5.75-4.74-3.83-7.11-9.83-7.11-17.98,0-3.67.55-7.37,1.64-11.11,1.09-3.74,2.73-7.18,4.9-10.33,2.17-3.14,4.83-5.67,8-7.58,3.17-1.91,6.8-2.86,10.9-2.86,4.81,0,8.98,1.17,12.51,3.5,3.53,2.33,6.43,5.49,8.72,9.47,2.29,3.98,4,8.43,5.15,13.37s1.72,10.02,1.72,15.26c0,10.05-1.86,18.62-5.58,25.69ZM1099.34,1155.28c1.95-.29,3.74-.67,5.36-1.14-.24-3-.68-5.83-1.32-8.47s-1.5-4.97-2.57-6.97c-1.07-2-2.41-3.55-4-4.65-1.6-1.1-3.47-1.64-5.61-1.64-2.76,0-4.92.88-6.47,2.64-1.55,1.76-2.63,3.84-3.25,6.22-.62,2.38-.93,4.5-.93,6.36,0,3.1,1.12,5.22,3.36,6.36s5.38,1.72,9.43,1.72c2.05,0,4.05-.14,6-.43Z"/>
    <path class="cls-1" d="M1132.68,1063.19c-1.03-1.6-1.54-3.73-1.54-6.4,0-4.15,1.45-7.56,4.36-10.26,2.91-2.69,6.19-4.04,9.86-4.04,1.81,0,3.41.2,4.79.61,1.38.41,2.76,1.01,4.14,1.82l.07,7.65c-1.48-.76-2.87-1.26-4.18-1.5-1.31-.24-2.58-.36-3.82-.36-2,0-3.84.6-5.5,1.79-1.67,1.19-2.5,2.93-2.5,5.22.05,1.38.74,2.72,2.07,4,1.33,1.29,3.29,1.74,5.86,1.36.1,0,.2-.02.32-.07.12-.05.23-.1.32-.14l9.86-3.5,1.07,7.58-27.8,11.01-1.07-7.43,7.65-3c-1.62-1.29-2.94-2.73-3.97-4.32ZM1151.59,1171.72h-15.22v-89.77h15.22v89.77Z"/>
    <path class="cls-1" d="M1322.26,1124.76l1.36,18.37c.24,4.15,1.38,7.23,3.43,9.26,2.05,2.03,5.22,3.04,9.51,3.04h1.72v16.37h-1.72c-5.38,0-9.85-1.01-13.4-3.04s-6.47-5.06-8.75-9.11c-4.1,4.34-9.24,7.45-15.44,9.33-6.19,1.88-14.56,2.82-25.09,2.82h-11.94c-8.67,0-16.43-.55-23.26-1.64-6.84-1.1-12.64-2.93-17.4-5.5-4.77-2.57-8.4-6.03-10.9-10.36-2.5-4.33-3.75-9.79-3.75-16.37,0-3.72.42-7.35,1.25-10.9.83-3.55,1.89-6.9,3.18-10.04l13.72,5.15c-.76,2.14-1.46,4.54-2.11,7.18s-.96,5.16-.96,7.54c0,3.91.94,7.08,2.82,9.51,1.88,2.43,4.57,4.3,8.08,5.61,3.5,1.31,7.72,2.22,12.65,2.72,4.93.5,10.49.75,16.69.75h11.94c7.29,0,13.51-.4,18.65-1.21,5.15-.81,9.09-2.29,11.83-4.43,2.74-2.14,4.11-5.22,4.11-9.22,0-2.14-.07-4.49-.21-7.04-.14-2.55-.31-4.87-.5-6.97l14.51-1.79ZM1278.52,1193.09l-11.44,11.44-11.44-11.44,11.44-11.44,11.44,11.44Z"/>
    <path class="cls-1" d="M1354.07,1101.46l-11.01,11.08-10.93-11.08,10.93-10.86,11.01,10.86ZM1340.49,1155.42v16.37h-5.08v-16.37h5.08ZM1374.8,1124.76l1.29,18.37c.14,2.76.71,5.06,1.71,6.9,1,1.83,2.44,3.19,4.32,4.07,1.88.88,4.25,1.32,7.11,1.32h1.5v16.37h-1.64c-3.38,0-6.36-.42-8.93-1.25-2.57-.83-4.8-2-6.68-3.5-1.88-1.5-3.51-3.32-4.9-5.47-2.67,3.38-6.06,5.93-10.18,7.65-4.12,1.72-8.45,2.57-12.97,2.57h-6.86v-16.37h6.86c5.72,0,9.73-1.15,12.04-3.47s3.47-6.09,3.47-11.33c0-2.48-.06-4.88-.18-7.22-.12-2.33-.27-4.62-.46-6.86l14.51-1.79ZM1377.94,1101.46l-11.01,11.08-10.86-11.08,10.86-10.86,11.01,10.86Z"/>
    <path class="cls-1" d="M1431.12,1155.42v16.37h-43.24v-16.37h43.24Z"/>
    <path class="cls-1" d="M1459.06,1110.5c3.05,2.12,5.88,4.23,8.5,6.33,2.62,2.1,5.01,4.28,7.18,6.54,2.17,2.26,4.12,4.71,5.86,7.33,1.74,2.62,3.25,5.48,4.54,8.58,1.57,3.81,3.13,6.91,4.68,9.29,1.55,2.38,3.42,4.12,5.61,5.22,2.19,1.1,5,1.64,8.43,1.64h2v16.37h-2c-5.48,0-10.11-.94-13.9-2.82-3.79-1.88-7.09-4.97-9.9-9.26-2.14,2.81-4.63,5.11-7.47,6.9-2.83,1.79-6.39,3.1-10.65,3.93-4.26.83-9.68,1.25-16.26,1.25h-17.44v-16.37h17.37c5.72,0,10.37-.3,13.97-.89,3.6-.59,6.26-1.66,8-3.18,1.74-1.52,2.61-3.67,2.61-6.43,0-1.95-.75-3.97-2.25-6.04-1.5-2.07-3.49-4.17-5.97-6.29-2.48-2.12-5.19-4.22-8.15-6.29-2.95-2.07-5.93-4.13-8.93-6.18-3-2.05-5.77-4.05-8.29-6-1.71-1.33-3.04-2.99-3.97-4.97-.93-1.98-1.39-4.01-1.39-6.11,0-2.33.58-4.47,1.75-6.4,1.17-1.93,2.97-3.37,5.4-4.32l53.03-21.58v16.08l-42.17,17.08c3.48,2.29,6.74,4.49,9.79,6.61Z"/>
    <path class="cls-1" d="M1543.86,1172.01c-2.88-.95-5.71-2.31-8.47-4.07-2.76-1.76-5.57-3.88-8.43-6.36-1.91,2.05-3.78,3.85-5.61,5.4-1.83,1.55-3.94,2.74-6.33,3.57-2.38.83-5.34,1.25-8.86,1.25h-3.14v-16.37h2.79c2.81,0,5.24-.92,7.29-2.75,2.05-1.83,3.94-4.19,5.68-7.08,1.74-2.88,3.5-5.94,5.29-9.18,1.79-3.24,3.8-6.31,6.04-9.22,2.24-2.91,4.9-5.26,7.97-7.08,3.07-1.81,6.78-2.72,11.11-2.72,5.62,0,10.49,1.33,14.62,4,4.12,2.67,7.31,6.23,9.58,10.68,2.26,4.46,3.4,9.35,3.4,14.69s-.91,10.07-2.72,14.04c-1.81,3.98-4.48,7.08-8,9.29-3.53,2.22-7.86,3.32-13.01,3.32-3.24,0-6.3-.48-9.18-1.43ZM1543.65,1135.31c-1.79,1.45-3.38,3.3-4.79,5.54-1.41,2.24-2.63,4.48-3.68,6.72,1.48,1.43,2.91,2.69,4.29,3.79,1.38,1.1,2.72,2.03,4,2.79,1.86,1.14,3.6,1.98,5.22,2.5,1.62.53,3.07.79,4.36.79,3.1,0,5.37-.9,6.83-2.72,1.45-1.81,2.18-4.22,2.18-7.22,0-4.1-1.1-7.52-3.29-10.26-2.19-2.74-5.24-4.11-9.15-4.11-2.19,0-4.18.73-5.97,2.18Z"/>
  </g>
</svg>