<svg id="chart" width="100%" height="auto" viewBox="0 0 10000 1400" xmlns="http://www.w3.org/2000/svg" > <path d="M 0,250.75590455418478 C 105.2,348.5213728598883 315.6,614.5375708470938 526,739.5832460827023 C 736.4,864.6289213183109 841.6,989.3196267485934 1052,875.9842807322275 C 1262.4,762.6489347158617 1367.6,266.2832020836928 1578,172.90651600087335 C 1788.4,79.52982991805393 1893.6,289.32108567869346 2104,409.10085031813037 C 2314.4,528.8806149575673 2419.6,671.020354666647 2630,771.8053391980578 C 2840.4,872.5903237294687 2945.6,940.0422790517862 3156,913.0257729751846 C 3366.4,886.0092668985832 3471.6,626.101947555177 3682,636.7228088150505 C 3892.4,647.3436700749239 3997.6,1047.127042185514 4208,966.1300792745517 C 4418.4,885.1331163635894 4523.6,247.47322849122656 4734,231.73799426023902 C 4944.4,216.0027600292515 5049.6,804.0861575867131 5260,887.4539081196141 C 5470.4,970.8216586525151 5575.6,781.0854034384108 5786,648.5767469247444 C 5996.4,516.068090411078 6101.6,162.43150972241364 6312,224.91062555128175 C 6522.4,287.3897413801499 6627.6,935.7338127269087 6838,960.9723260690852 C 7048.4,986.2108394112616 7153.6,407.37052773604955 7364,351.1031922621644 C 7574.4,294.8358567882792 7679.6,653.9260901374728 7890,679.6356486996594 C 8100.4,705.3452072618461 8205.6,574.7105593797274 8416,479.6509850730975 C 8626.4,384.59141076646756 8731.6,169.87722406347848 8942,204.33777716650982 C 9152.4,238.7983302695412 9257.6,625.6410482985875 9468,651.9537505882543 C 9678.4,678.266452877921 9888.8,399.11178100952577 9994,335.9012886148437L 10000 1400 L 0 1400Z" fill="#444cf71a" /> <path d="M 0,250.75590455418478 C 105.2,348.5213728598883 315.6,614.5375708470938 526,739.5832460827023 C 736.4,864.6289213183109 841.6,989.3196267485934 1052,875.9842807322275 C 1262.4,762.6489347158617 1367.6,266.2832020836928 1578,172.90651600087335 C 1788.4,79.52982991805393 1893.6,289.32108567869346 2104,409.10085031813037 C 2314.4,528.8806149575673 2419.6,671.020354666647 2630,771.8053391980578 C 2840.4,872.5903237294687 2945.6,940.0422790517862 3156,913.0257729751846 C 3366.4,886.0092668985832 3471.6,626.101947555177 3682,636.7228088150505 C 3892.4,647.3436700749239 3997.6,1047.127042185514 4208,966.1300792745517 C 4418.4,885.1331163635894 4523.6,247.47322849122656 4734,231.73799426023902 C 4944.4,216.0027600292515 5049.6,804.0861575867131 5260,887.4539081196141 C 5470.4,970.8216586525151 5575.6,781.0854034384108 5786,648.5767469247444 C 5996.4,516.068090411078 6101.6,162.43150972241364 6312,224.91062555128175 C 6522.4,287.3897413801499 6627.6,935.7338127269087 6838,960.9723260690852 C 7048.4,986.2108394112616 7153.6,407.37052773604955 7364,351.1031922621644 C 7574.4,294.8358567882792 7679.6,653.9260901374728 7890,679.6356486996594 C 8100.4,705.3452072618461 8205.6,574.7105593797274 8416,479.6509850730975 C 8626.4,384.59141076646756 8731.6,169.87722406347848 8942,204.33777716650982 C 9152.4,238.7983302695412 9257.6,625.6410482985875 9468,651.9537505882543 C 9678.4,678.266452877921 9888.8,399.11178100952577 9994,335.9012886148437" fill="none" stroke="#444cf7" stroke-width="4px" /> <g> <circle cx="0" cy="250.75590455418478" r="8" fill="#444cf7" /> <circle cx="526" cy="739.5832460827023" r="8" fill="#444cf7" /> <circle cx="1052" cy="875.9842807322275" r="8" fill="#444cf7" /> <circle cx="1578" cy="172.90651600087335" r="8" fill="#444cf7" /> <circle cx="2104" cy="409.10085031813037" r="8" fill="#444cf7" /> <circle cx="2630" cy="771.8053391980578" r="8" fill="#444cf7" /> <circle cx="3156" cy="913.0257729751846" r="8" fill="#444cf7" /> <circle cx="3682" cy="636.7228088150505" r="8" fill="#444cf7" /> <circle cx="4208" cy="966.1300792745517" r="8" fill="#444cf7" /> <circle cx="4734" cy="231.73799426023902" r="8" fill="#444cf7" /> <circle cx="5260" cy="887.4539081196141" r="8" fill="#444cf7" /> <circle cx="5786" cy="648.5767469247444" r="8" fill="#444cf7" /> <circle cx="6312" cy="224.91062555128175" r="8" fill="#444cf7" /> <circle cx="6838" cy="960.9723260690852" r="8" fill="#444cf7" /> <circle cx="7364" cy="351.1031922621644" r="8" fill="#444cf7" /> <circle cx="7890" cy="679.6356486996594" r="8" fill="#444cf7" /> <circle cx="8416" cy="479.6509850730975" r="8" fill="#444cf7" /> <circle cx="8942" cy="204.33777716650982" r="8" fill="#444cf7" /> <circle cx="9468" cy="651.9537505882543" r="8" fill="#444cf7" /> <circle cx="9994" cy="335.9012886148437" r="8" fill="#444cf7" /> </g> </svg>