<svg xmlns="http://www.w3.org/2000/svg" xmlns:xlink="http://www.w3.org/1999/xlink" viewBox="0 0 1920 1080" width="1920" height="1080" preserveAspectRatio="xMidYMid meet" style="width: 100%; height: 100%; transform: translate3d(0px, 0px, 0px); content-visibility: visible;"><defs><clipPath id="__lottie_element_4"><rect width="1920" height="1080" x="0" y="0"></rect></clipPath><clipPath id="__lottie_element_6"><path d="M0,0 L1920,0 L1920,1080 L0,1080z"></path></clipPath></defs><g clip-path="url(#__lottie_element_4)"><g id="239" clip-path="url(#__lottie_element_6)" transform="matrix(1,0,0,1,0,0)" opacity="1" style="display: block;"><g id="88" transform="matrix(1,0,0,1,1231.181884765625,615.1991577148438)" opacity="1" style="display: block;"><g opacity="1" transform="matrix(1.0747699737548828,0,0,1.0747699737548828,-569.75,-50.75)"><path fill="rgb(254,153,51)" fill-opacity="1" d=" M0,-27.25 C15.039275169372559,-27.25 27.25,-15.039275169372559 27.25,0 C27.25,15.039275169372559 15.039275169372559,27.25 0,27.25 C-15.039275169372559,27.25 -27.25,15.039275169372559 -27.25,0 C-27.25,-15.039275169372559 -15.039275169372559,-27.25 0,-27.25z"></path></g></g><g id="89" transform="matrix(1,0,0,1,1243.661865234375,794.889892578125)" opacity="1" style="display: block;"><g opacity="1" transform="matrix(1.0747699737548828,0,0,1.0747699737548828,-569.75,-50.75)"><path fill="rgb(254,153,51)" fill-opacity="1" d=" M0,-27.25 C15.039275169372559,-27.25 27.25,-15.039275169372559 27.25,0 C27.25,15.039275169372559 15.039275169372559,27.25 0,27.25 C-15.039275169372559,27.25 -27.25,15.039275169372559 -27.25,0 C-27.25,-15.039275169372559 -15.039275169372559,-27.25 0,-27.25z"></path></g></g><g id="90" transform="matrix(1,0,0,1,1261.2515869140625,906.223388671875)" opacity="1" style="display: block;"><g opacity="1" transform="matrix(1.0747699737548828,0,0,1.0747699737548828,-569.75,-50.75)"><path fill="rgb(254,153,51)" fill-opacity="1" d=" M0,-27.25 C15.039275169372559,-27.25 27.25,-15.039275169372559 27.25,0 C27.25,15.039275169372559 15.039275169372559,27.25 0,27.25 C-15.039275169372559,27.25 -27.25,15.039275169372559 -27.25,0 C-27.25,-15.039275169372559 -15.039275169372559,-27.25 0,-27.25z"></path></g></g><g id="91" transform="matrix(1,0,0,1,1503.1383056640625,921.7930297851562)" opacity="1" style="display: block;"><g opacity="1" transform="matrix(1.0747699737548828,0,0,1.0747699737548828,-569.75,-50.75)"><path fill="rgb(254,153,51)" fill-opacity="1" d=" M0,-27.25 C15.039275169372559,-27.25 27.25,-15.039275169372559 27.25,0 C27.25,15.039275169372559 15.039275169372559,27.25 0,27.25 C-15.039275169372559,27.25 -27.25,15.039275169372559 -27.25,0 C-27.25,-15.039275169372559 -15.039275169372559,-27.25 0,-27.25z"></path></g></g><g id="92" transform="matrix(1,0,0,1,1673.7479248046875,961.3895874023438)" opacity="1" style="display: block;"><g opacity="1" transform="matrix(1.0747699737548828,0,0,1.0747699737548828,-569.75,-50.75)"><path fill="rgb(254,153,51)" fill-opacity="1" d=" M0,-27.25 C15.039275169372559,-27.25 27.25,-15.039275169372559 27.25,0 C27.25,15.039275169372559 15.039275169372559,27.25 0,27.25 C-15.039275169372559,27.25 -27.25,15.039275169372559 -27.25,0 C-27.25,-15.039275169372559 -15.039275169372559,-27.25 0,-27.25z"></path></g></g><g id="93" transform="matrix(1,0,0,1,1893.2188720703125,1035.608642578125)" opacity="1" style="display: block;"><g opacity="1" transform="matrix(1.0747699737548828,0,0,1.0747699737548828,-569.75,-50.75)"><path fill="rgb(254,153,51)" fill-opacity="1" d=" M0,-27.25 C15.039275169372559,-27.25 27.25,-15.039275169372559 27.25,0 C27.25,15.039275169372559 15.039275169372559,27.25 0,27.25 C-15.039275169372559,27.25 -27.25,15.039275169372559 -27.25,0 C-27.25,-15.039275169372559 -15.039275169372559,-27.25 0,-27.25z"></path></g></g><g id="94" transform="matrix(1,0,0,1,2113.7255859375,676.3471069335938)" opacity="1" style="display: block;"><g opacity="1" transform="matrix(1.0747699737548828,0,0,1.0747699737548828,-569.75,-50.75)"><path fill="rgb(254,153,51)" fill-opacity="1" d=" M0,-27.25 C15.039275169372559,-27.25 27.25,-15.039275169372559 27.25,0 C27.25,15.039275169372559 15.039275169372559,27.25 0,27.25 C-15.039275169372559,27.25 -27.25,15.039275169372559 -27.25,0 C-27.25,-15.039275169372559 -15.039275169372559,-27.25 0,-27.25z"></path></g></g><g id="95" transform="matrix(1,0,0,1,2107.59228515625,578.6189575195312)" opacity="1" style="display: block;"><g opacity="1" transform="matrix(1.0747699737548828,0,0,1.0747699737548828,-569.75,-50.75)"><path fill="rgb(254,153,51)" fill-opacity="1" d=" M0,-27.25 C15.039275169372559,-27.25 27.25,-15.039275169372559 27.25,0 C27.25,15.039275169372559 15.039275169372559,27.25 0,27.25 C-15.039275169372559,27.25 -27.25,15.039275169372559 -27.25,0 C-27.25,-15.039275169372559 -15.039275169372559,-27.25 0,-27.25z"></path></g></g><g id="96" transform="matrix(1,0,0,1,1842.13818359375,435.6712951660156)" opacity="1" style="display: block;"><g opacity="1" transform="matrix(1.0747699737548828,0,0,1.0747699737548828,-569.75,-50.75)"><path fill="rgb(254,153,51)" fill-opacity="1" d=" M0,-27.25 C15.039275169372559,-27.25 27.25,-15.039275169372559 27.25,0 C27.25,15.039275169372559 15.039275169372559,27.25 0,27.25 C-15.039275169372559,27.25 -27.25,15.039275169372559 -27.25,0 C-27.25,-15.039275169372559 -15.039275169372559,-27.25 0,-27.25z"></path></g></g><g id="97" transform="matrix(1,0,0,1,1631.3140869140625,334.4862365722656)" opacity="1" style="display: block;"><g opacity="1" transform="matrix(1.0747699737548828,0,0,1.0747699737548828,-569.75,-50.75)"><path fill="rgb(254,153,51)" fill-opacity="1" d=" M0,-27.25 C15.039275169372559,-27.25 27.25,-15.039275169372559 27.25,0 C27.25,15.039275169372559 15.039275169372559,27.25 0,27.25 C-15.039275169372559,27.25 -27.25,15.039275169372559 -27.25,0 C-27.25,-15.039275169372559 -15.039275169372559,-27.25 0,-27.25z"></path></g></g><g id="98" transform="matrix(1,0,0,1,1279.4146728515625,105.15580749511719)" opacity="1" style="display: block;"><g opacity="1" transform="matrix(1.0747699737548828,0,0,1.0747699737548828,-569.75,-50.75)"><path fill="rgb(254,153,51)" fill-opacity="1" d=" M0,-27.25 C15.039275169372559,-27.25 27.25,-15.039275169372559 27.25,0 C27.25,15.039275169372559 15.039275169372559,27.25 0,27.25 C-15.039275169372559,27.25 -27.25,15.039275169372559 -27.25,0 C-27.25,-15.039275169372559 -15.039275169372559,-27.25 0,-27.25z"></path></g></g><g id="100" transform="matrix(1,0,0,1,960,540)" opacity="1" style="display: block;"><g opacity="1" transform="matrix(1,0,0,1,0,0)"><path stroke-linecap="butt" stroke-linejoin="miter" fill-opacity="0" stroke-miterlimit="4" stroke="rgb(254,153,51)" stroke-opacity="1" stroke-width="10" d=" M-274.8181457519531,22.19915199279785 C-274.8181457519531,22.19915199279785 -257.5852966308594,-469.8442077636719 -257.5852966308594,-469.8442077636719"></path></g></g><g id="101" transform="matrix(1,0,0,1,960,540)" opacity="1" style="display: block;"><g opacity="1" transform="matrix(1,0,0,1,0,0)"><path stroke-linecap="butt" stroke-linejoin="miter" fill-opacity="0" stroke-miterlimit="4" stroke="rgb(254,153,51)" stroke-opacity="1" stroke-width="10" d=" M-255.58529663085938,-461.8442077636719 C-255.58529663085938,-461.8442077636719 -280.33807373046875,191.88987731933594 -280.33807373046875,191.88987731933594"></path></g></g><g id="102" transform="matrix(1,0,0,1,960,540)" opacity="1" style="display: block;"><g opacity="1" transform="matrix(1,0,0,1,0,0)"><path stroke-linecap="butt" stroke-linejoin="miter" fill-opacity="0" stroke-miterlimit="4" stroke="rgb(254,153,51)" stroke-opacity="1" stroke-width="10" d=" M-233.58529663085938,-471.8442077636719 C-233.58529663085938,-471.8442077636719 285.1382141113281,-157.3286895751953 285.1382141113281,-157.3286895751953"></path></g></g><g id="103" transform="matrix(1,0,0,1,960,540)" opacity="1" style="display: block;"><g opacity="1" transform="matrix(1,0,0,1,0,0)"><path stroke-linecap="butt" stroke-linejoin="miter" fill-opacity="0" stroke-miterlimit="4" stroke="rgb(254,153,51)" stroke-opacity="1" stroke-width="10" d=" M313.1382141113281,-135.3286895751953 C313.1382141113281,-135.3286895751953 351.2188415527344,436.608642578125 351.2188415527344,436.608642578125"></path></g></g><g id="104" transform="matrix(1,0,0,1,960,540)" opacity="1" style="display: block;"><g opacity="1" transform="matrix(1,0,0,1,0,0)"><path stroke-linecap="butt" stroke-linejoin="miter" fill-opacity="0" stroke-miterlimit="4" stroke="rgb(254,153,51)" stroke-opacity="1" stroke-width="10" d=" M309.1382141113281,-135.3286895751953 C309.1382141113281,-135.3286895751953 150.74795532226562,353.38958740234375 150.74795532226562,353.38958740234375"></path></g></g><g id="105" transform="matrix(1,0,0,1,960,540)" opacity="1" style="display: block;"><g opacity="1" transform="matrix(1,0,0,1,0,0)"><path stroke-linecap="butt" stroke-linejoin="miter" fill-opacity="0" stroke-miterlimit="4" stroke="rgb(254,153,51)" stroke-opacity="1" stroke-width="10" d=" M303.1382141113281,-137.3286895751953 C303.1382141113281,-137.3286895751953 -10.861675262451172,314.7920837402344 -10.861675262451172,314.7920837402344"></path></g></g><g id="106" transform="matrix(1,0,0,1,960,540)" opacity="1" style="display: block;"><g opacity="1" transform="matrix(1,0,0,1,0,0)"><path stroke-linecap="butt" stroke-linejoin="miter" fill-opacity="0" stroke-miterlimit="4" stroke="rgb(254,153,51)" stroke-opacity="1" stroke-width="10" d=" M-284.8181457519531,17.19915199279785 C-284.8181457519531,17.19915199279785 -298.33807373046875,205.88987731933594 -298.33807373046875,205.88987731933594"></path></g></g><g id="107" transform="matrix(1,0,0,1,960,540)" opacity="1" style="display: block;"><g opacity="1" transform="matrix(1,0,0,1,0,0)"><path stroke-linecap="butt" stroke-linejoin="miter" fill-opacity="0" stroke-miterlimit="4" stroke="rgb(254,153,51)" stroke-opacity="1" stroke-width="7" d=" M-276.8181457519531,33.199153900146484 C-276.8181457519531,33.199153900146484 -280.7483825683594,300.2233581542969 -280.7483825683594,300.2233581542969"></path></g></g><g id="108" transform="matrix(1,0,0,1,960,540)" opacity="1" style="display: block;"><g opacity="1" transform="matrix(1,0,0,1,0,0)"><path stroke-linecap="butt" stroke-linejoin="miter" fill-opacity="0" stroke-miterlimit="4" stroke="rgb(254,153,51)" stroke-opacity="1" stroke-width="7" d=" M-241.74839782714844,322.2233581542969 C-241.74839782714844,322.2233581542969 131.74795532226562,360.38958740234375 131.74795532226562,360.38958740234375"></path></g></g><g id="109" transform="matrix(1,0,0,1,960,540)" opacity="1" style="display: block;"><g opacity="1" transform="matrix(1,0,0,1,0,0)"><path stroke-linecap="butt" stroke-linejoin="miter" fill-opacity="0" stroke-miterlimit="4" stroke="rgb(254,153,51)" stroke-opacity="1" stroke-width="7" d=" M164.74795532226562,367.38958740234375 C164.74795532226562,367.38958740234375 344.2188415527344,451.608642578125 344.2188415527344,451.608642578125"></path></g></g><g id="110" transform="matrix(1,0,0,1,960,540)" opacity="1" style="display: block;"><g opacity="1" transform="matrix(1,0,0,1,0,0)"><path stroke-linecap="butt" stroke-linejoin="miter" fill-opacity="0" stroke-miterlimit="4" stroke="rgb(254,153,51)" stroke-opacity="1" stroke-width="7" d=" M368.2188415527344,421.608642578125 C368.2188415527344,421.608642578125 573.6802368164062,92.98553466796875 573.6802368164062,92.98553466796875"></path></g></g><g id="111" transform="matrix(1,0,0,1,960,540)" opacity="1" style="display: block;"><g opacity="1" transform="matrix(1,0,0,1,0,0)"><path stroke-linecap="butt" stroke-linejoin="miter" fill-opacity="0" stroke-miterlimit="4" stroke="rgb(254,153,51)" stroke-opacity="1" stroke-width="10" d=" M587.6802368164062,61.985530853271484 C587.6802368164062,61.985530853271484 579.5922241210938,2.6189475059509277 579.5922241210938,2.6189475059509277"></path></g></g><g id="112" transform="matrix(1,0,0,1,960,540)" opacity="1" style="display: block;"><g opacity="1" transform="matrix(1,0,0,1,0,0)"><path stroke-linecap="butt" stroke-linejoin="miter" fill-opacity="0" stroke-miterlimit="4" stroke="rgb(254,153,51)" stroke-opacity="1" stroke-width="7" d=" M556.5922241210938,-27.381052017211914 C556.5922241210938,-27.381052017211914 118.31407165527344,-250.5137481689453 118.31407165527344,-250.5137481689453"></path></g></g><g id="113" transform="matrix(1,0,0,1,960,540)" opacity="1" style="display: block;"><g opacity="1" transform="matrix(1,0,0,1,0,0)"><path stroke-linecap="butt" stroke-linejoin="miter" fill-opacity="0" stroke-miterlimit="4" stroke="rgb(254,153,51)" stroke-opacity="1" stroke-width="7" d=" M88.31407165527344,-242.5137481689453 C88.31407165527344,-242.5137481689453 -230.58529663085938,-480.8442077636719 -230.58529663085938,-480.8442077636719"></path></g></g><g id="114" transform="matrix(1,0,0,1,960,540)" opacity="1" style="display: block;"><g opacity="1" transform="matrix(1,0,0,1,0,0)"><path stroke-linecap="butt" stroke-linejoin="miter" fill-opacity="0" stroke-miterlimit="4" stroke="rgb(254,153,51)" stroke-opacity="1" stroke-width="7" d=" M297.1382141113281,-141.3286895751953 C297.1382141113281,-141.3286895751953 -266.33807373046875,199.88987731933594 -266.33807373046875,199.88987731933594"></path></g></g><g id="115" transform="matrix(1,0,0,1,960,540)" opacity="1" style="display: block;"><g opacity="1" transform="matrix(1,0,0,1,0,0)"><path stroke-linecap="butt" stroke-linejoin="miter" fill-opacity="0" stroke-miterlimit="4" stroke="rgb(254,153,51)" stroke-opacity="1" stroke-width="7" d=" M-273.33807373046875,219.88987731933594 C-273.33807373046875,219.88987731933594 -38.86167526245117,313.7929992675781 -38.86167526245117,313.7929992675781"></path></g></g><g id="116" transform="matrix(1,0,0,1,960,540)" opacity="1" style="display: block;"><g opacity="1" transform="matrix(1,0,0,1,0,0)"><path stroke-linecap="butt" stroke-linejoin="miter" fill-opacity="0" stroke-miterlimit="4" stroke="rgb(254,153,51)" stroke-opacity="1" stroke-width="7" d=" M-287.33807373046875,216.88987731933594 C-287.33807373046875,216.88987731933594 -266.7483825683594,294.2233581542969 -266.7483825683594,294.2233581542969"></path></g></g><g id="117" transform="matrix(1,0,0,1,960,540)" opacity="1" style="display: block;"><g opacity="1" transform="matrix(1,0,0,1,0,0)"><path stroke-linecap="butt" stroke-linejoin="miter" fill-opacity="0" stroke-miterlimit="4" stroke="rgb(254,153,51)" stroke-opacity="1" stroke-width="7" d=" M-248.74839782714844,304.2233581542969 C-248.74839782714844,304.2233581542969 -39.86167526245117,340.7929992675781 -39.86167526245117,340.7929992675781"></path></g></g><g id="118" transform="matrix(1,0,0,1,960,540)" opacity="1" style="display: block;"><g opacity="1" transform="matrix(1,0,0,1,0,0)"><path stroke-linecap="butt" stroke-linejoin="miter" fill-opacity="0" stroke-miterlimit="4" stroke="rgb(254,153,51)" stroke-opacity="1" stroke-width="7" d=" M-7.861674785614014,343.7929992675781 C-7.861674785614014,343.7929992675781 130.74795532226562,353.38958740234375 130.74795532226562,353.38958740234375"></path></g></g><g id="119" transform="matrix(1,0,0,1,960,540)" opacity="1" style="display: block;"><g opacity="1" transform="matrix(1,0,0,1,0,0)"><path stroke-linecap="butt" stroke-linejoin="miter" fill-opacity="0" stroke-miterlimit="4" stroke="rgb(254,153,51)" stroke-opacity="1" stroke-width="5" d=" M-282.8181457519531,27.19915199279785 C-282.8181457519531,27.19915199279785 305.1382141113281,-143.3286895751953 305.1382141113281,-143.3286895751953"></path></g></g><g id="120" transform="matrix(1,0,0,1,960,540)" opacity="1" style="display: block;"><g opacity="1" transform="matrix(1,0,0,1,0,0)"><path stroke-linecap="butt" stroke-linejoin="miter" fill-opacity="0" stroke-miterlimit="4" stroke="rgb(254,153,51)" stroke-opacity="1" stroke-width="6" d=" M331.1382141113281,-159.3286895751953 C331.1382141113281,-159.3286895751953 565.5922241210938,-4.381052494049072 565.5922241210938,-4.381052494049072"></path></g></g><g id="121" transform="matrix(1,0,0,1,960,540)" opacity="1" style="display: block;"><g opacity="1" transform="matrix(1,0,0,1,0,0)"><path stroke-linecap="butt" stroke-linejoin="miter" fill-opacity="0" stroke-miterlimit="4" stroke="rgb(254,153,51)" stroke-opacity="1" stroke-width="8" d=" M120.31407165527344,-244.5137481689453 C120.31407165527344,-244.5137481689453 305.1382141113281,-171.3286895751953 305.1382141113281,-171.3286895751953"></path></g></g><g id="122" transform="matrix(1,0,0,1,960,540)" opacity="1" style="display: block;"><g opacity="1" transform="matrix(1,0,0,1,0,0)"><path stroke-linecap="butt" stroke-linejoin="miter" fill-opacity="0" stroke-miterlimit="4" stroke="rgb(254,153,51)" stroke-opacity="1" stroke-width="10" d=" M323.1382141113281,-139.3286895751953 C323.1382141113281,-139.3286895751953 584.6802368164062,63.985530853271484 584.6802368164062,63.985530853271484"></path></g></g><g id="123" transform="matrix(1,0,0,1,960,540)" opacity="1" style="display: block;"><g opacity="1" transform="matrix(1,0,0,1,0,0)"><path stroke-linecap="butt" stroke-linejoin="miter" fill-opacity="0" stroke-miterlimit="4" stroke="rgb(254,153,51)" stroke-opacity="1" stroke-width="10" d=" M-3.8616750240325928,338.7929992675781 C-3.8616750240325928,338.7929992675781 339.2188415527344,441.608642578125 339.2188415527344,441.608642578125"></path></g></g><g id="124" transform="matrix(1,0,0,1,960,540)" opacity="1" style="display: block;"><g opacity="1" transform="matrix(1,0,0,1,0,0)"><path stroke-linecap="butt" stroke-linejoin="miter" fill-opacity="0" stroke-miterlimit="4" stroke="rgb(254,153,51)" stroke-opacity="1" stroke-width="7" d=" M-243.58529663085938,-479.8442077636719 C-243.58529663085938,-479.8442077636719 -18.861675262451172,326.7929992675781 -18.861675262451172,326.7929992675781"></path></g></g></g></g></svg>